<svg width="254.70627441406248px" height="89.6150146484375px" xmlns="http://www.w3.org/2000/svg" viewBox="122.64686279296876 30.192492675781253 254.70627441406248 89.6150146484375" style="background: rgb(253, 253, 253);" preserveAspectRatio="xMidYMid"><defs><linearGradient id="editing-shiny-gradient" x1="0.04322727117869957" x2="0.9567727288213004" y1="0.2966316784620999" y2="0.7033683215379001" gradientUnits="objectBoundingBox"><stop offset="0.0" stop-color="#00c5fe"></stop><stop offset="0.5" stop-color="#ff257c"></stop><stop offset="1.0" stop-color="#925555"></stop></linearGradient><linearGradient id="editing-shiny-gradient2" x1="0" x2="0" y1="0" y2="1"><stop offset="0.2" stop-color="#fff" stop-opacity="0.8"></stop><stop offset="0.8" stop-color="#fff" stop-opacity="0"></stop></linearGradient><filter id="editing-shiny2" x="-100%" y="-100%" width="300%" height="300%"><feMorphology operator="erode" radius="2"></feMorphology></filter><filter id="editing-shiny" x="-100%" y="-100%" width="300%" height="300%"><feFlood flood-color="#fff" result="flood"></feFlood><feConvolveMatrix in="SourceGraphic" result="conv" order="8,8" divisor="1" kernelMatrix="0 0 0 0 0 0 0 0 0 0 0 1 1 0 0 0 0 0 0 1 1 0 0 0 0 0 1 0 0 1 0 0 0 0 1 0 0 1 0 0 0 1 0 0 0 0 1 0 0 1 1 0 0 1 1 0 0 0 0 1 1 0 0 0 "></feConvolveMatrix><feOffset dx="0" dy="4" in="conv" result="offset"></feOffset><feComposite operator="in" in="flood" in2="offset" result="comp"></feComposite><feGaussianBlur in="offset" stdDeviation="3" result="shadow"></feGaussianBlur><feColorMatrix in="shadow" type="matrix" values="0.7 0 0 0 0  0 0.7 0 0 0  0 0 0.7 0 0  0 0 0 0.3 0" result="dark-shadow"></feColorMatrix><feOffset dx="0" dy="4" in="dark-shadow" result="offset-shadow"></feOffset><feOffset dx="0" dy="2" in="conv" result="offset-2"></feOffset><feComposite operator="out" in="offset" in2="offset-2" result="edge-diff"></feComposite><feGaussianBlur in="edge-diff" stdDeviation="1" result="edge-blur"></feGaussianBlur><feColorMatrix in="edge-blur" result="edge-shadow" type="matrix" values="0 0 0 0 0  0 0 0 0 0  0 0 0 0 0  0 0 0 0.5 0"></feColorMatrix><feComposite operator="in" in="edge-shadow" in2="offset" result="edge-shadow-in"></feComposite><feOffset dx="0" dy="1" in="edge-shadow-in" result="edge-shadow-final"></feOffset><feMerge result="out"><feMergeNode in="offset-shadow"></feMergeNode><feMergeNode in="comp"></feMergeNode><feMergeNode in="edge-shadow-final"></feMergeNode><feMergeNode in="SourceGraphic"></feMergeNode></feMerge></filter></defs><g filter="url(#editing-shiny)"><g transform="translate(166.10219049453735, 92.40562438964844)"><path d="M3.56 7.24L3.56 7.24Q2.84 7.52 2.28 7.52L2.28 7.52L2.28 7.52Q1.36 7.52 0.44 7.10L0.44 7.10L0.44 7.10Q-0.48 6.68-1.16 5.92L-1.16 5.92L-1.16 5.92Q-1.56 5.52-1.56 5.08L-1.56 5.08L-1.56 5.08Q-1.56 4.84-1.44 4.48L-1.44 4.48L-1.44 4.48Q-1.24 3.76-0.92 3.76L-0.92 3.76L-0.92 3.76Q-0.76 3.76-0.46 3.98L-0.46 3.98L-0.46 3.98Q-0.16 4.20 0.08 4.52L0.08 4.52L0.08 4.52Q0.88 5.20 1.60 5.20L1.60 5.20L1.60 5.20Q3.04 5.20 4.64 2.72L4.64 2.72L5.68 0.40L5.68 0.40Q7.92-4.52 8.20-5.36L8.20-5.36L8.20-5.36Q8.20-5.40 8.24-5.52L8.24-5.52L8.24-5.52Q8.28-5.64 8.40-5.80L8.40-5.80L8.40-5.80Q8.44-5.96 8.62-6.48L8.62-6.48L8.62-6.48Q8.80-7 8.92-7.56L8.92-7.56L10.60-12.32L10.60-12.32Q10.76-13.12 11.06-14.06L11.06-14.06L11.06-14.06Q11.36-15 11.60-15.64L11.60-15.64L11.60-15.64Q11.76-15.96 12.80-19.08L12.80-19.08L12.80-19.08Q13.28-20.60 13.64-21.68L13.64-21.68L13.64-21.68Q13.80-22.16 14.24-23.60L14.24-23.60L14.24-23.60Q14.68-25.04 14.60-25.16L14.60-25.16L12.36-24.76L12.36-24.76Q11.92-24.56 11.28-24.56L11.28-24.56L11.28-24.56Q10.88-24.56 10.62-24.64L10.62-24.64L10.62-24.64Q10.36-24.72 10.40-24.84L10.40-24.84L10.40-25.04L10.40-25.04Q10.20-24.88 9.86-25.26L9.86-25.26L9.86-25.26Q9.52-25.64 9.56-25.96L9.56-25.96L9.56-25.96Q9.56-26.28 10.34-26.54L10.34-26.54L10.34-26.54Q11.12-26.80 12.40-26.96L12.40-26.96L15.28-27.36L15.28-27.36Q15.48-27.52 16.28-27.22L16.28-27.22L16.28-27.22Q17.08-26.92 17.40-26.60L17.40-26.60L17.40-26.60Q17.72-26.16 17.72-25.72L17.72-25.72L17.72-25.72Q17.72-25.16 17.38-24.14L17.38-24.14L17.38-24.14Q17.04-23.12 15.84-19.88L15.84-19.88L14.52-16.16L14.52-16.16Q13.56-13.24 13.04-12.04L13.04-12.04L13.04-12.04Q12.88-11.52 12.60-10.76L12.60-10.76L12.60-10.76Q11.92-8.80 11.60-7.64L11.60-7.64L11.60-7.64Q11.12-6.52 10.56-4.60L10.56-4.60L10.56-4.60Q10.56-4.28 10.40-3.88L10.40-3.88L10.40-3.88Q10.24-3.48 10.04-3.28L10.04-3.28L9.08-0.92L8.72 0.04L8.72 0.04Q8.64 0.28 8.30 1.12L8.30 1.12L8.30 1.12Q7.96 1.96 7.68 2.36L7.68 2.36L7.68 2.36Q7.56 2.68 7.24 3.20L7.24 3.20L7.24 3.20Q6.92 3.72 6.92 3.84L6.92 3.84L6.92 3.84Q6.92 3.88 6.88 3.98L6.88 3.98L6.88 3.98Q6.84 4.08 6.72 4.08L6.72 4.08L6.72 4.08Q6.68 4.12 6.58 4.22L6.58 4.22L6.58 4.22Q6.48 4.32 6.48 4.48L6.48 4.48L6.48 4.48Q6.28 4.96 5.24 5.96L5.24 5.96L5.24 5.96Q4.20 6.96 3.56 7.24L3.56 7.24ZM16.12-1.44L16.12-1.44Q16-1.68 15.74-1.94L15.74-1.94L15.74-1.94Q15.48-2.20 15.48-2.28L15.48-2.28L15.48-2.28Q15.48-2.72 15.28-2.96L15.28-2.96L15.28-2.96Q15.20-3.04 15.20-3.32L15.20-3.32L15.20-3.32Q15.20-3.96 15.82-5.50L15.82-5.50L15.82-5.50Q16.44-7.04 17.44-8.84L17.44-8.84L17.44-8.84Q17.68-9.08 18.06-9.68L18.06-9.68L18.06-9.68Q18.44-10.28 18.56-10.36L18.56-10.36L18.56-10.36Q18.56-10.52 18.68-10.66L18.68-10.66L18.68-10.66Q18.80-10.80 18.96-10.80L18.96-10.80L18.96-11.04L18.96-11.04Q18.96-11.40 20.28-12.78L20.28-12.78L20.28-12.78Q21.60-14.16 22.44-14.68L22.44-14.68L22.44-14.68Q23.44-15.36 24.48-15.36L24.48-15.36L24.48-15.36Q25.20-15.36 25.72-14.96L25.72-14.96L25.72-14.96Q25.92-14.72 27.56-13.24L27.56-13.24L29.04-11.92L28.32-9.92L28.32-9.92Q27.96-8.84 27.96-7.96L27.96-7.96L27.96-7.96Q27.96-6.44 28.84-5.04L28.84-5.04L28.84-5.04Q29.04-4.60 29.64-4.20L29.64-4.20L29.64-4.20Q30.24-3.80 30.84-3.72L30.84-3.72L30.84-3.72Q31.72-3.56 31.72-2.84L31.72-2.84L31.72-2.84Q31.72-2.04 31-1.88L31-1.88L31-1.88Q30.84-1.84 30.52-1.84L30.52-1.84L30.52-1.84Q28.16-1.84 26.44-5.16L26.44-5.16L26.44-5.16Q26.28-5.40 26.02-6.04L26.02-6.04L26.02-6.04Q25.76-6.68 25.72-6.92L25.72-6.92L25.72-6.92Q25.48-6.60 25.12-6.16L25.12-6.16L25.12-6.16Q24.76-5.72 24.44-5.40L24.44-5.40L24.44-5.40Q20.08-1.04 17.56-1.04L17.56-1.04L17.56-1.04Q16.76-1.04 16.12-1.44L16.12-1.44ZM17.56-3.68L17.56-3.68Q17.56-3.48 17.98-3.56L17.98-3.56L17.98-3.56Q18.40-3.64 19.02-3.96L19.02-3.96L19.02-3.96Q19.64-4.28 20.28-4.80L20.28-4.80L20.28-4.80Q23.72-7.76 25.24-9.96L25.24-9.96L26.12-11.40L26.12-11.40Q25.72-12.24 25.28-12.62L25.28-12.62L25.28-12.62Q24.84-13 24.48-13L24.48-13L24.48-13Q23.64-13 21.84-10.90L21.84-10.90L21.84-10.90Q20.04-8.80 18.56-5.96L18.56-5.96L18.56-5.96Q18.20-5.28 17.92-4.58L17.92-4.58L17.92-4.58Q17.64-3.88 17.56-3.68L17.56-3.68ZM37.64-17.52L37.64-17.52Q37.36-17.80 37.16-18.48L37.16-18.48L37.16-18.48Q36.96-19.16 37.16-19.16L37.16-19.16L37.16-19.16Q37.48-19.20 37.90-19.86L37.90-19.86L37.90-19.86Q38.32-20.52 38.28-20.96L38.28-20.96L38.28-20.96Q38.28-21.12 38.40-21.26L38.40-21.26L38.40-21.26Q38.52-21.40 38.68-21.44L38.68-21.44L38.68-21.44Q39-21.64 39.24-21.64L39.24-21.64L39.24-21.64Q39.92-21.64 40.48-20.68L40.48-20.68L40.48-20.68Q40.72-20.16 40.72-19.76L40.72-19.76L40.72-19.76Q40.72-19.40 40.52-19.02L40.52-19.02L40.52-19.02Q40.32-18.64 39.80-18.04L39.80-18.04L39.80-18.04Q39.12-17.12 38.52-17.12L38.52-17.12L38.52-17.12Q38.12-17.12 37.64-17.52L37.64-17.52ZM33.76-1.28L33.76-1.28Q33.20-1.84 33.20-2.88L33.20-2.88L33.20-2.88Q33.20-3.44 33.40-3.84L33.40-3.84L33.40-3.84Q33.40-4.04 33.48-4.32L33.48-4.32L33.48-4.32Q33.56-4.60 33.56-4.68L33.56-4.68L33.56-4.68Q33.52-4.92 33.88-6L33.88-6L33.88-6Q34.60-7.60 35.80-11.64L35.80-11.64L35.80-11.64Q35.80-11.84 35.96-11.98L35.96-11.98L35.96-11.98Q36.12-12.12 36.44-12.16L36.44-12.16L36.44-12.16Q36.76-12.24 36.88-12.24L36.88-12.24L36.88-12.24Q37.12-12.24 37.30-12.06L37.30-12.06L37.30-12.06Q37.48-11.88 37.80-11.40L37.80-11.40L37.80-11.40Q38.04-11.16 38.04-10.68L38.04-10.68L38.04-10.68Q38.04-9.92 37.52-8.84L37.52-8.84L37.52-8.84Q37-7.68 36.84-6.84L36.84-6.84L36.84-6.84Q36.36-5.76 36.08-4.84L36.08-4.84L36.08-4.84Q36-4.60 35.84-3.88L35.84-3.88L35.84-3.88Q35.68-3.16 35.40-2.72L35.40-2.72L35.40-2.72Q35.16-1.60 34.96-1.16L34.96-1.16L34.96-1.16Q34.76-0.72 34.52-0.72L34.52-0.72L34.52-0.72Q34.24-0.72 33.76-1.28L33.76-1.28ZM56.64 2L55.04 1.52L55.08 1.40L55.08 1.40Q55.08 1 54.40 0.96L54.40 0.96L54.40 0.96Q53.56 0.44 52.90-0.40L52.90-0.40L52.90-0.40Q52.24-1.24 52-1.88L52-1.88L52-1.88Q51.72-2.52 51.72-2.56L51.72-2.56L51.72-2.56Q51.72-2.68 51.86-2.76L51.86-2.76L51.86-2.76Q52-2.84 52.20-2.96L52.20-2.96L52.20-2.96Q52.44-3.16 52.72-3.16L52.72-3.16L52.72-3.16Q52.88-3.16 53.02-2.98L53.02-2.98L53.02-2.98Q53.16-2.80 53.40-2.36L53.40-2.36L53.40-2.36Q53.88-1.52 55.04-1.02L55.04-1.02L55.04-1.02Q56.20-0.52 57.68-0.52L57.68-0.52L57.68-0.52Q59.48-0.52 61.04-1.24L61.04-1.24L61.04-1.24Q62.08-1.68 62.56-2.10L62.56-2.10L62.56-2.10Q63.04-2.52 63.04-3.04L63.04-3.04L63.04-3.04Q63.04-3.52 62.60-4.20L62.60-4.20L62.60-4.20Q62.48-4.52 62.26-4.78L62.26-4.78L62.26-4.78Q62.04-5.04 61.64-5.40L61.64-5.40L61.64-5.40Q61.40-5.60 60.72-6.28L60.72-6.28L60.72-6.28Q60.08-6.52 59.40-6.92L59.40-6.92L58.56-7.32L58.56-7.32Q57.48-7.80 56.06-8.98L56.06-8.98L56.06-8.98Q54.64-10.16 54.16-11.04L54.16-11.04L54.16-11.04Q53.60-11.56 53.28-12.48L53.28-12.48L53.28-12.48Q52.96-13.40 52.96-14.48L52.96-14.48L52.96-14.48Q52.96-15.92 53.56-17.12L53.56-17.12L53.56-17.12Q54.04-18.20 55.68-20.12L55.68-20.12L55.68-20.12Q57.32-22.04 58.20-22.64L58.20-22.64L59.24-23.64L59.24-23.64Q59.28-23.80 59.36-23.82L59.36-23.82L59.36-23.82Q59.44-23.84 59.48-23.84L59.48-23.84L59.48-23.84Q59.60-23.92 60.32-24.22L60.32-24.22L60.32-24.22Q61.04-24.52 61.84-25.28L61.84-25.28L61.84-25.28Q64.56-26.60 66.22-27.18L66.22-27.18L66.22-27.18Q67.88-27.76 68.96-27.76L68.96-27.76L68.96-27.76Q70.48-27.68 71.54-26.82L71.54-26.82L71.54-26.82Q72.60-25.96 72.80-24.56L72.80-24.56L72.80-24.56Q72.88-24.32 72.88-23.84L72.88-23.84L72.88-23.84Q72.88-22.40 71.84-20.74L71.84-20.74L71.84-20.74Q70.80-19.08 69.48-18.32L69.48-18.32L69.48-18.32Q68.48-17.88 68.08-17.88L68.08-17.88L68.08-17.88Q67.80-17.88 67.70-18.08L67.70-18.08L67.70-18.08Q67.60-18.28 67.64-18.72L67.64-18.72L67.64-18.72Q67.64-19.08 67.90-19.54L67.90-19.54L67.90-19.54Q68.16-20 69.08-21.04L69.08-21.04L69.08-21.04Q70.72-23.40 70.72-24.56L70.72-24.56L70.72-24.56Q70.72-25.24 70.12-25.28L70.12-25.28L70.12-25.28Q69.68-25.40 67.90-25.08L67.90-25.08L67.90-25.08Q66.12-24.76 66.12-24.56L66.12-24.56L66.12-24.56Q66.12-24.52 66.10-24.42L66.10-24.42L66.10-24.42Q66.08-24.32 65.96-24.36L65.96-24.36L65.96-24.36Q65.80-24.40 63-22.70L63-22.70L63-22.70Q60.20-21 60.12-20.80L60.12-20.80L60.12-20.80Q60.08-20.60 59.82-20.38L59.82-20.38L59.82-20.38Q59.56-20.16 59.20-20L59.20-20L59.20-20Q58.44-19.56 57.80-18.72L57.80-18.72L57.80-18.72Q57.16-17.88 56.28-16.32L56.28-16.32L56.28-16.32Q55.80-15.64 55.50-14.84L55.50-14.84L55.50-14.84Q55.20-14.04 55.20-13.40L55.20-13.40L55.20-13.40Q55.20-12.96 55.32-12.64L55.32-12.64L55.32-12.64Q55.52-11.96 56.56-10.98L56.56-10.98L56.56-10.98Q57.60-10 59.16-9.08L59.16-9.08L59.16-9.08Q61.20-7.92 62.58-6.82L62.58-6.82L62.58-6.82Q63.96-5.72 64.32-4.96L64.32-4.96L64.32-4.96Q65.24-3.68 65.24-2.12L65.24-2.12L65.24-2.12Q65.24-1.56 65.12-1.08L65.12-1.08L65.12-1.08Q64.80-0.40 64.12 0.26L64.12 0.26L64.12 0.26Q63.44 0.92 62.96 0.88L62.96 0.88L62.96 0.88Q62.56 1 62.28 1.18L62.28 1.18L62.28 1.18Q62 1.36 61.80 1.44L61.80 1.44L61.80 1.44Q61.36 1.72 59.70 1.90L59.70 1.90L59.70 1.90Q58.04 2.08 56.64 2L56.64 2ZM72.16-2.16L71.92-2.16L71.92-2.16Q71.32-2.16 71-2.44L71-2.44L71-2.44Q70.68-2.72 70.58-2.88L70.58-2.88L70.58-2.88Q70.48-3.04 70.48-3.28L70.48-3.28L70.48-3.28Q70.48-3.44 70.76-4.76L70.76-4.76L71.12-6.08L71.12-6.08Q71.52-7.72 71.84-8.80L71.84-8.80L71.84-8.80Q72-9.80 72.46-10.92L72.46-10.92L72.46-10.92Q72.92-12.04 73-12.28L73-12.28L73-12.28Q73.32-13.44 74.24-15.88L74.24-15.88L75.44-19.12L75.44-19.12Q76.84-22.92 77.12-23.76L77.12-23.76L77.76-25.52L77.76-25.52Q77.76-26.16 78.40-26.16L78.40-26.16L78.40-26.16Q78.96-26.16 79.34-25.54L79.34-25.54L79.34-25.54Q79.72-24.92 79.72-24.12L79.72-24.12L79.72-24.12Q79.72-23.52 79.48-22.96L79.48-22.96L79.48-22.96Q78.92-21.76 78.26-19.94L78.26-19.94L78.26-19.94Q77.60-18.12 77.40-17.56L77.40-17.56L77.40-17.56Q76.04-13.72 75.44-12.44L75.44-12.44L75.44-12.44Q75.44-12.28 75.32-11.88L75.32-11.88L75.32-11.88Q75.20-11.48 75.04-11.16L75.04-11.16L74.60-10.28L74.60-10.28Q74.60-10.16 74.16-8.60L74.16-8.60L74.16-8.60Q73.60-6.88 73.48-6.08L73.48-6.08L73.48-6.08Q73.68-6.44 74.32-7.18L74.32-7.18L74.32-7.18Q74.96-7.92 75.52-8.40L75.52-8.40L75.52-8.40Q77.72-10.28 78.24-10.64L78.24-10.64L78.24-10.64Q78.72-10.92 79.04-11.16L79.04-11.16L79.04-11.16Q79.36-11.40 79.48-11.48L79.48-11.48L79.48-11.48Q79.48-11.68 79.92-11.68L79.92-11.68L79.92-11.68Q80.08-11.68 80.10-11.72L80.10-11.72L80.10-11.72Q80.12-11.76 80.12-11.92L80.12-11.92L80.12-11.92Q80.12-12.20 81.04-12.42L81.04-12.42L81.04-12.42Q81.96-12.64 82.68-12.64L82.68-12.64L82.68-12.64Q83.16-12.64 83.44-12.44L83.44-12.44L83.44-12.44Q83.72-12.24 84.16-11.56L84.16-11.56L84.16-11.56Q84.84-10.60 84.84-9.48L84.84-9.48L84.84-9.48Q84.84-8.84 84.60-8.16L84.60-8.16L84.60-8.16Q84.60-7.84 84.50-7.18L84.50-7.18L84.50-7.18Q84.40-6.52 84.40-6.04L84.40-6.04L84.16-4.76L84.80-4.76L84.80-4.76Q85.08-4.76 85.34-4.68L85.34-4.68L85.34-4.68Q85.60-4.60 85.68-4.56L85.68-4.56L85.68-4.56Q86.04-4.12 86.32-4.12L86.32-4.12L86.32-4.12Q86.68-4.12 86.68-3.84L86.68-3.84L86.68-3.84Q86.68-3.68 86.52-3.44L86.52-3.44L86.52-3.44Q86.36-3.20 86.08-3.04L86.08-3.04L86.08-3.04Q85.04-2.40 84.32-2.40L84.32-2.40L84.32-2.40Q83.64-2.40 82.92-3.04L82.92-3.04L82.92-3.04Q82.04-3.92 82.04-5.16L82.04-5.16L82.04-5.16Q82.04-5.80 82.28-6.68L82.28-6.68L82.40-7.96L82.40-7.96Q82.48-8.92 82.48-9.16L82.48-9.16L82.48-9.16Q82.48-10.08 82.04-10.08L82.04-10.08L82.04-10.08Q81.48-10.08 79.90-9.10L79.90-9.10L79.90-9.10Q78.32-8.12 76.64-6.66L76.64-6.66L76.64-6.66Q74.96-5.20 73.96-3.72L73.96-3.72L73.96-3.72Q73.36-2.96 72.94-2.58L72.94-2.58L72.94-2.58Q72.52-2.20 72.16-2.16L72.16-2.16ZM89.56-1.44L89.56-1.44Q89.44-1.68 89.18-1.94L89.18-1.94L89.18-1.94Q88.92-2.20 88.92-2.28L88.92-2.28L88.92-2.28Q88.92-2.72 88.72-2.96L88.72-2.96L88.72-2.96Q88.64-3.04 88.64-3.32L88.64-3.32L88.64-3.32Q88.64-3.96 89.26-5.50L89.26-5.50L89.26-5.50Q89.88-7.04 90.88-8.84L90.88-8.84L90.88-8.84Q91.12-9.08 91.50-9.68L91.50-9.68L91.50-9.68Q91.88-10.28 92-10.36L92-10.36L92-10.36Q92-10.52 92.12-10.66L92.12-10.66L92.12-10.66Q92.24-10.80 92.40-10.80L92.40-10.80L92.40-11.04L92.40-11.04Q92.40-11.40 93.72-12.78L93.72-12.78L93.72-12.78Q95.04-14.16 95.88-14.68L95.88-14.68L95.88-14.68Q96.88-15.36 97.92-15.36L97.92-15.36L97.92-15.36Q98.64-15.36 99.16-14.96L99.16-14.96L99.16-14.96Q99.36-14.72 101-13.24L101-13.24L102.48-11.92L101.76-9.92L101.76-9.92Q101.40-8.84 101.40-7.96L101.40-7.96L101.40-7.96Q101.40-6.44 102.28-5.04L102.28-5.04L102.28-5.04Q102.48-4.60 103.08-4.20L103.08-4.20L103.08-4.20Q103.68-3.80 104.28-3.72L104.28-3.72L104.28-3.72Q105.16-3.56 105.16-2.84L105.16-2.84L105.16-2.84Q105.16-2.04 104.44-1.88L104.44-1.88L104.44-1.88Q104.28-1.84 103.96-1.84L103.96-1.84L103.96-1.84Q101.60-1.84 99.88-5.16L99.88-5.16L99.88-5.16Q99.72-5.40 99.46-6.04L99.46-6.04L99.46-6.04Q99.20-6.68 99.16-6.92L99.16-6.92L99.16-6.92Q98.92-6.60 98.56-6.16L98.56-6.16L98.56-6.16Q98.20-5.72 97.88-5.40L97.88-5.40L97.88-5.40Q93.52-1.04 91-1.04L91-1.04L91-1.04Q90.20-1.04 89.56-1.44L89.56-1.44ZM91-3.68L91-3.68Q91-3.48 91.42-3.56L91.42-3.56L91.42-3.56Q91.84-3.64 92.46-3.96L92.46-3.96L92.46-3.96Q93.08-4.28 93.72-4.80L93.72-4.80L93.72-4.80Q97.16-7.76 98.68-9.96L98.68-9.96L99.56-11.40L99.56-11.40Q99.16-12.24 98.72-12.62L98.72-12.62L98.72-12.62Q98.28-13 97.92-13L97.92-13L97.92-13Q97.08-13 95.28-10.90L95.28-10.90L95.28-10.90Q93.48-8.80 92-5.96L92-5.96L92-5.96Q91.64-5.28 91.36-4.58L91.36-4.58L91.36-4.58Q91.08-3.88 91-3.68L91-3.68ZM120.92-1.84L120.92-1.84Q120.12-1.84 119.60-2.18L119.60-2.18L119.60-2.18Q119.08-2.52 118.72-3.32L118.72-3.32L118.72-3.32Q118.36-4.60 118.36-5.88L118.36-5.88L118.36-5.88Q118.36-6.48 118.48-6.72L118.48-6.72L118.48-6.72Q118.64-6.88 118.62-7.42L118.62-7.42L118.62-7.42Q118.60-7.96 118.60-8.20L118.60-8.20L118.60-8.20Q118.56-9.12 118.04-9.12L118.04-9.12L118.04-9.12Q117.68-9.12 117.24-8.84L117.24-8.84L117.24-8.84Q115-7.44 113.48-6.44L113.48-6.44L113.48-6.44Q111.96-5.44 110.56-4.20L110.56-4.20L110.56-4.20Q110-3.56 109.72-3.08L109.72-3.08L109.72-3.08Q109.44-2.60 109.32-2.42L109.32-2.42L109.32-2.42Q109.20-2.24 109-2.24L109-2.24L109-2.24Q108.76-2.16 108.68-2.16L108.68-2.16L108.68-2.16Q108.48-2.16 108.20-2.38L108.20-2.38L108.20-2.38Q107.92-2.60 107.84-2.68L107.84-2.68L107.84-2.68Q107.68-2.84 107.32-3.22L107.32-3.22L107.32-3.22Q106.96-3.60 106.92-3.76L106.92-3.76L106.92-3.76Q106.92-4.08 107.18-5.24L107.18-5.24L107.18-5.24Q107.44-6.40 107.60-6.72L107.60-6.72L107.60-6.72Q107.72-6.72 107.96-7.22L107.96-7.22L107.96-7.22Q108.20-7.72 108.40-8L108.40-8L108.40-8Q108.52-8.60 109.44-10.76L109.44-10.76L109.44-10.76Q110-11.72 110.22-12.36L110.22-12.36L110.22-12.36Q110.44-13 110.52-13.96L110.52-13.96L110.52-14.04L110.52-14.04Q110.52-14.20 110.64-14.30L110.64-14.30L110.64-14.30Q110.76-14.40 110.88-14.40L110.88-14.40L110.88-14.40Q111.16-14.60 111.40-14.60L111.40-14.60L111.40-14.60Q111.92-14.60 112.44-13.96L112.44-13.96L112.44-13.96Q113.04-13.20 113.04-12.36L113.04-12.36L113.04-12.36Q113.04-11.32 111.72-9.08L111.72-9.08L111.72-9.08Q111.60-8.80 111.38-8.28L111.38-8.28L111.38-8.28Q111.16-7.76 111.16-7.56L111.16-7.56L113.40-9.08L113.40-9.08Q113.72-9.44 115.12-10.36L115.12-10.36L115.12-10.36Q116.52-11.28 117.08-11.40L117.08-11.40L117.08-11.40Q118.04-11.84 118.28-11.84L118.28-11.84L118.28-11.84Q118.76-11.84 119.58-11.12L119.58-11.12L119.58-11.12Q120.40-10.40 120.56-9.92L120.56-9.92L120.56-9.92Q120.56-9.48 120.64-9.28L120.64-9.28L120.64-9.28Q120.84-8.48 120.84-7.40L120.84-7.40L120.84-7.40Q120.84-6.68 120.74-6.10L120.74-6.10L120.74-6.10Q120.64-5.52 120.48-5.44L120.48-5.44L120.48-5.44Q120.48-5.40 120.52-5.32L120.52-5.32L120.52-5.32Q120.56-5.24 120.68-5.24L120.68-5.24L120.68-5.04L120.68-5.04Q120.36-5.04 120.60-4.36L120.60-4.36L120.60-4.36Q120.84-3.68 121.24-3.32L121.24-3.32L121.24-3.32Q121.64-2.92 121.64-2.52L121.64-2.52L121.64-2.52Q121.64-2.04 120.92-1.84L120.92-1.84ZM125.24-0.20L125.24-0.20Q124.76-0.36 124.24-1.14L124.24-1.14L124.24-1.14Q123.72-1.92 123.72-2.56L123.72-2.56L124.28-4.24L125.04-6.64L125.04-6.64Q125.40-7.16 125.62-7.90L125.62-7.90L125.62-7.90Q125.84-8.64 125.88-8.76L125.88-8.76L125.88-8.76Q126.28-9.52 127.48-12.44L127.48-12.44L128.24-14.28L128.24-14.28Q129.36-16.68 130.08-18.60L130.08-18.60L130.72-20.08L131.48-21.84L131.48-21.84Q132.88-25.24 133.04-25.80L133.04-25.80L133.04-25.80Q133.04-26.12 133.18-26.28L133.18-26.28L133.18-26.28Q133.32-26.44 133.48-26.44L133.48-26.44L133.48-26.44Q133.68-26.64 134.12-26.64L134.12-26.64L134.12-26.64Q134.32-26.64 134.76-26.02L134.76-26.02L134.76-26.02Q135.20-25.40 135.20-24.96L135.20-24.96L135.20-24.96Q135.20-24.28 134.56-22.50L134.56-22.50L134.56-22.50Q133.92-20.72 132.84-18.56L132.84-18.56L132.84-18.56Q128.92-10.12 129.24-9.80L129.24-9.80L129.24-9.80Q129.40-9.88 129.92-10.14L129.92-10.14L129.92-10.14Q130.44-10.40 131-10.80L131-10.80L131-10.80Q131.36-11 131.68-11.22L131.68-11.22L131.68-11.22Q132-11.44 132.24-11.60L132.24-11.60L132.24-11.60Q133.48-12.44 133.76-12.52L133.76-12.52L133.76-12.52Q134-12.68 134.68-13.08L134.68-13.08L134.68-13.08Q135.40-13.56 135.44-13.60L135.44-13.60L135.44-13.60Q135.92-13.84 136.24-13.84L136.24-13.84L136.24-13.84Q136.48-13.84 136.68-13.68L136.68-13.68L136.68-13.68Q136.88-13.52 137.16-13.20L137.16-13.20L137.16-13.20Q137.40-12.92 137.40-12.64L137.40-12.64L137.40-12.64Q137.40-12.36 137.08-12.06L137.08-12.06L137.08-12.06Q136.76-11.76 136-11.28L136-11.28L136-11.28Q135.48-10.92 134.92-10.60L134.92-10.60L134.92-10.60Q134.36-10.28 133.84-9.96L133.84-9.96L133.84-9.96Q130.96-8.20 130.88-8.08L130.88-8.08L130.88-8.08Q130.96-7.92 131.26-7.36L131.26-7.36L131.26-7.36Q131.56-6.80 131.84-6.40L131.84-6.40L132.44-5.36L132.44-5.36Q132.92-4.68 132.92-4.48L132.92-4.48L132.92-4.48Q133.28-3.48 133.90-2.92L133.90-2.92L133.90-2.92Q134.52-2.36 135.24-2.36L135.24-2.36L135.24-2.36Q135.60-2.36 136.08-2.56L136.08-2.56L136.08-2.56Q136.68-2.80 137.04-2.80L137.04-2.80L137.04-2.80Q137.60-2.80 137.80-2.16L137.80-2.16L137.80-2.16Q137.92-1.92 137.92-1.80L137.92-1.80L137.92-1.80Q137.92-1.64 137.36-1.08L137.36-1.08L137.36-1.08Q136.32-0.04 135.24-0.04L135.24-0.04L135.24-0.04Q134.88-0.04 134.40-0.24L134.40-0.24L134.40-0.24Q133.80-0.20 132.90-1.04L132.90-1.04L132.90-1.04Q132-1.88 130.40-3.96L130.40-3.96L130.40-3.96Q130.40-4.12 129.96-5L129.96-5L129.96-5Q129.80-5.36 129.60-5.66L129.60-5.66L129.60-5.66Q129.40-5.96 129.32-6.08L129.32-6.08L129.32-6.08Q129.32-6.24 129.14-6.50L129.14-6.50L129.14-6.50Q128.96-6.76 128.88-6.92L128.88-6.92L128.88-6.92Q128.44-7.04 128.18-6.84L128.18-6.84L128.18-6.84Q127.92-6.64 127.70-6.28L127.70-6.28L127.70-6.28Q127.48-5.92 127.36-5.76L127.36-5.76L127.36-5.76Q126.96-4.72 126.56-3.22L126.56-3.22L126.56-3.22Q126.16-1.72 126.28-1.28L126.28-1.28L126.28-1.28Q126.28-0.64 126.08-0.42L126.08-0.42L126.08-0.42Q125.88-0.20 125.24-0.20L125.24-0.20ZM139.64-1.44L139.64-1.44Q139.52-1.68 139.26-1.94L139.26-1.94L139.26-1.94Q139-2.20 139-2.28L139-2.28L139-2.28Q139-2.72 138.80-2.96L138.80-2.96L138.80-2.96Q138.72-3.04 138.72-3.32L138.72-3.32L138.72-3.32Q138.72-3.96 139.34-5.50L139.34-5.50L139.34-5.50Q139.96-7.04 140.96-8.84L140.96-8.84L140.96-8.84Q141.20-9.08 141.58-9.68L141.58-9.68L141.58-9.68Q141.96-10.28 142.08-10.36L142.08-10.36L142.08-10.36Q142.08-10.52 142.20-10.66L142.20-10.66L142.20-10.66Q142.32-10.80 142.48-10.80L142.48-10.80L142.48-11.04L142.48-11.04Q142.48-11.40 143.80-12.78L143.80-12.78L143.80-12.78Q145.12-14.16 145.96-14.68L145.96-14.68L145.96-14.68Q146.96-15.36 148-15.36L148-15.36L148-15.36Q148.72-15.36 149.24-14.96L149.24-14.96L149.24-14.96Q149.44-14.72 151.08-13.24L151.08-13.24L152.56-11.92L151.84-9.92L151.84-9.92Q151.48-8.84 151.48-7.96L151.48-7.96L151.48-7.96Q151.48-6.44 152.36-5.04L152.36-5.04L152.36-5.04Q152.56-4.60 153.16-4.20L153.16-4.20L153.16-4.20Q153.76-3.80 154.36-3.72L154.36-3.72L154.36-3.72Q155.24-3.56 155.24-2.84L155.24-2.84L155.24-2.84Q155.24-2.04 154.52-1.88L154.52-1.88L154.52-1.88Q154.36-1.84 154.04-1.84L154.04-1.84L154.04-1.84Q151.68-1.84 149.96-5.16L149.96-5.16L149.96-5.16Q149.80-5.40 149.54-6.04L149.54-6.04L149.54-6.04Q149.28-6.68 149.24-6.92L149.24-6.92L149.24-6.92Q149-6.60 148.64-6.16L148.64-6.16L148.64-6.16Q148.28-5.72 147.96-5.40L147.96-5.40L147.96-5.40Q143.60-1.04 141.08-1.04L141.08-1.04L141.08-1.04Q140.28-1.04 139.64-1.44L139.64-1.44ZM141.08-3.68L141.08-3.68Q141.08-3.48 141.50-3.56L141.50-3.56L141.50-3.56Q141.92-3.64 142.54-3.96L142.54-3.96L142.54-3.96Q143.16-4.28 143.80-4.80L143.80-4.80L143.80-4.80Q147.24-7.76 148.76-9.96L148.76-9.96L149.64-11.40L149.64-11.40Q149.24-12.24 148.80-12.62L148.80-12.62L148.80-12.62Q148.36-13 148-13L148-13L148-13Q147.16-13 145.36-10.90L145.36-10.90L145.36-10.90Q143.56-8.80 142.08-5.96L142.08-5.96L142.08-5.96Q141.72-5.28 141.44-4.58L141.44-4.58L141.44-4.58Q141.16-3.88 141.08-3.68L141.08-3.68ZM157.60-1.40L157.60-1.40Q157.28-1.64 157.16-1.84L157.16-1.84L157.16-1.84Q157.04-2.04 157.04-2.44L157.04-2.44L157.04-2.44Q157.04-2.80 157.08-3.04L157.08-3.04L157.08-3.04Q157.20-4.40 157.68-6.20L157.68-6.20L157.88-7L157.88-7Q158-8 159.28-11.20L159.28-11.20L159.28-11.20Q160.56-14.40 161.36-15.56L161.36-15.56L161.36-15.56Q161.68-15.76 162.04-15.76L162.04-15.76L162.04-15.76Q162.56-15.76 162.92-15.40L162.92-15.40L162.92-15.40Q163.16-15.24 163.16-14.80L163.16-14.80L163.16-14.80Q163.16-14.40 162.86-13.62L162.86-13.62L162.86-13.62Q162.56-12.84 161.84-11.32L161.84-11.32L161.84-11.32Q161.68-11 161.30-10.12L161.30-10.12L161.30-10.12Q160.92-9.24 160.92-9.08L160.92-9.08L160.92-9.08Q160.92-9 160.96-9L160.96-9L160.96-9Q161.04-9 161.12-9.06L161.12-9.06L161.12-9.06Q161.20-9.12 161.28-9.16L161.28-9.16L161.28-9.16Q161.72-9.92 163.42-11.24L163.42-11.24L163.42-11.24Q165.12-12.56 165.76-12.88L165.76-12.88L165.76-12.88Q166.04-13.04 166.48-13.20L166.48-13.20L166.48-13.20Q166.92-13.36 167.08-13.44L167.08-13.44L167.08-13.44Q167.72-13.76 168.60-13.76L168.60-13.76L168.60-13.76Q169.16-13.76 169.58-13.58L169.58-13.58L169.58-13.58Q170-13.40 170.16-13.04L170.16-13.04L170.16-13.04Q170.20-12.76 170.38-12.60L170.38-12.60L170.38-12.60Q170.56-12.44 170.64-12.40L170.64-12.40L170.64-12.40Q170.76-12.40 170.80-12.30L170.80-12.30L170.80-12.30Q170.84-12.20 170.84-12.16L170.84-12.16L170.84-12.16Q170.84-11.88 170.52-11.82L170.52-11.82L170.52-11.82Q170.20-11.76 169.36-11.72L169.36-11.72L169.36-11.72Q168.92-11.68 168.44-11.52L168.44-11.52L168.44-11.52Q167.96-11.36 167.48-11.12L167.48-11.12L167.48-11.12Q165.24-9.84 164.14-9.12L164.14-9.12L164.14-9.12Q163.04-8.40 161.92-7.16L161.92-7.16L161.92-7.16Q161.48-6.68 160.76-5.44L160.76-5.44L160.76-5.44Q160.48-5.16 160.18-3.98L160.18-3.98L160.18-3.98Q159.88-2.80 159.88-2.52L159.88-2.52L159.88-2.52Q159.84-2.40 159.72-2.06L159.72-2.06L159.72-2.06Q159.60-1.72 159.36-1.40L159.36-1.40L159.36-1.40Q158.88-0.76 158.56-0.76L158.56-0.76L158.56-0.76Q158.20-0.76 157.60-1.40L157.60-1.40Z" fill="url(#editing-shiny-gradient)"></path></g></g><g filter="url(#editing-shiny2)"><g transform="translate(166.66469049453735, 92.63999938964844)"><path d="M3.56 7.24L3.56 7.24Q2.84 7.52 2.28 7.52L2.28 7.52L2.28 7.52Q1.36 7.52 0.44 7.10L0.44 7.10L0.44 7.10Q-0.48 6.68-1.16 5.92L-1.16 5.92L-1.16 5.92Q-1.56 5.52-1.56 5.08L-1.56 5.08L-1.56 5.08Q-1.56 4.84-1.44 4.48L-1.44 4.48L-1.44 4.48Q-1.24 3.76-0.92 3.76L-0.92 3.76L-0.92 3.76Q-0.76 3.76-0.46 3.98L-0.46 3.98L-0.46 3.98Q-0.16 4.20 0.08 4.52L0.08 4.52L0.08 4.52Q0.88 5.20 1.60 5.20L1.60 5.20L1.60 5.20Q3.04 5.20 4.64 2.72L4.64 2.72L5.68 0.40L5.68 0.40Q7.92-4.52 8.20-5.36L8.20-5.36L8.20-5.36Q8.20-5.40 8.24-5.52L8.24-5.52L8.24-5.52Q8.28-5.64 8.40-5.80L8.40-5.80L8.40-5.80Q8.44-5.96 8.62-6.48L8.62-6.48L8.62-6.48Q8.80-7 8.92-7.56L8.92-7.56L10.60-12.32L10.60-12.32Q10.76-13.12 11.06-14.06L11.06-14.06L11.06-14.06Q11.36-15 11.60-15.64L11.60-15.64L11.60-15.64Q11.76-15.96 12.80-19.08L12.80-19.08L12.80-19.08Q13.28-20.60 13.64-21.68L13.64-21.68L13.64-21.68Q13.80-22.16 14.24-23.60L14.24-23.60L14.24-23.60Q14.68-25.04 14.60-25.16L14.60-25.16L12.36-24.76L12.36-24.76Q11.92-24.56 11.28-24.56L11.28-24.56L11.28-24.56Q10.88-24.56 10.62-24.64L10.62-24.64L10.62-24.64Q10.36-24.72 10.40-24.84L10.40-24.84L10.40-25.04L10.40-25.04Q10.20-24.88 9.86-25.26L9.86-25.26L9.86-25.26Q9.52-25.64 9.56-25.96L9.56-25.96L9.56-25.96Q9.56-26.28 10.34-26.54L10.34-26.54L10.34-26.54Q11.12-26.80 12.40-26.96L12.40-26.96L15.28-27.36L15.28-27.36Q15.48-27.52 16.28-27.22L16.28-27.22L16.28-27.22Q17.08-26.92 17.40-26.60L17.40-26.60L17.40-26.60Q17.72-26.16 17.72-25.72L17.72-25.72L17.72-25.72Q17.72-25.16 17.38-24.14L17.38-24.14L17.38-24.14Q17.04-23.12 15.84-19.88L15.84-19.88L14.52-16.16L14.52-16.16Q13.56-13.24 13.04-12.04L13.04-12.04L13.04-12.04Q12.88-11.52 12.60-10.76L12.60-10.76L12.60-10.76Q11.92-8.80 11.60-7.64L11.60-7.64L11.60-7.64Q11.12-6.52 10.56-4.60L10.56-4.60L10.56-4.60Q10.56-4.28 10.40-3.88L10.40-3.88L10.40-3.88Q10.24-3.48 10.04-3.28L10.04-3.28L9.08-0.92L8.72 0.04L8.72 0.04Q8.64 0.28 8.30 1.12L8.30 1.12L8.30 1.12Q7.96 1.96 7.68 2.36L7.68 2.36L7.68 2.36Q7.56 2.68 7.24 3.20L7.24 3.20L7.24 3.20Q6.92 3.72 6.92 3.84L6.92 3.84L6.92 3.84Q6.92 3.88 6.88 3.98L6.88 3.98L6.88 3.98Q6.84 4.08 6.72 4.08L6.72 4.08L6.72 4.08Q6.68 4.12 6.58 4.22L6.58 4.22L6.58 4.22Q6.48 4.32 6.48 4.48L6.48 4.48L6.48 4.48Q6.28 4.96 5.24 5.96L5.24 5.96L5.24 5.96Q4.20 6.96 3.56 7.24L3.56 7.24ZM16.12-1.44L16.12-1.44Q16-1.68 15.74-1.94L15.74-1.94L15.74-1.94Q15.48-2.20 15.48-2.28L15.48-2.28L15.48-2.28Q15.48-2.72 15.28-2.96L15.28-2.96L15.28-2.96Q15.20-3.04 15.20-3.32L15.20-3.32L15.20-3.32Q15.20-3.96 15.82-5.50L15.82-5.50L15.82-5.50Q16.44-7.04 17.44-8.84L17.44-8.84L17.44-8.84Q17.68-9.08 18.06-9.68L18.06-9.68L18.06-9.68Q18.44-10.28 18.56-10.36L18.56-10.36L18.56-10.36Q18.56-10.52 18.68-10.66L18.68-10.66L18.68-10.66Q18.80-10.80 18.96-10.80L18.96-10.80L18.96-11.04L18.96-11.04Q18.96-11.40 20.28-12.78L20.28-12.78L20.28-12.78Q21.60-14.16 22.44-14.68L22.44-14.68L22.44-14.68Q23.44-15.36 24.48-15.36L24.48-15.36L24.48-15.36Q25.20-15.36 25.72-14.96L25.72-14.96L25.72-14.96Q25.92-14.72 27.56-13.24L27.56-13.24L29.04-11.92L28.32-9.92L28.32-9.92Q27.96-8.84 27.96-7.96L27.96-7.96L27.96-7.96Q27.96-6.44 28.84-5.04L28.84-5.04L28.84-5.04Q29.04-4.60 29.64-4.20L29.64-4.20L29.64-4.20Q30.24-3.80 30.84-3.72L30.84-3.72L30.84-3.72Q31.72-3.56 31.72-2.84L31.72-2.84L31.72-2.84Q31.72-2.04 31-1.88L31-1.88L31-1.88Q30.84-1.84 30.52-1.84L30.52-1.84L30.52-1.84Q28.16-1.84 26.44-5.16L26.44-5.16L26.44-5.16Q26.28-5.40 26.02-6.04L26.02-6.04L26.02-6.04Q25.76-6.68 25.72-6.92L25.72-6.92L25.72-6.92Q25.48-6.60 25.12-6.16L25.12-6.16L25.12-6.16Q24.76-5.72 24.44-5.40L24.44-5.40L24.44-5.40Q20.08-1.04 17.56-1.04L17.56-1.04L17.56-1.04Q16.76-1.04 16.12-1.44L16.12-1.44ZM17.56-3.68L17.56-3.68Q17.56-3.48 17.98-3.56L17.98-3.56L17.98-3.56Q18.40-3.64 19.02-3.96L19.02-3.96L19.02-3.96Q19.64-4.28 20.28-4.80L20.28-4.80L20.28-4.80Q23.72-7.76 25.24-9.96L25.24-9.96L26.12-11.40L26.12-11.40Q25.72-12.24 25.28-12.62L25.28-12.62L25.28-12.62Q24.84-13 24.48-13L24.48-13L24.48-13Q23.64-13 21.84-10.90L21.84-10.90L21.84-10.90Q20.04-8.80 18.56-5.96L18.56-5.96L18.56-5.96Q18.20-5.28 17.92-4.58L17.92-4.58L17.92-4.58Q17.64-3.88 17.56-3.68L17.56-3.68ZM37.64-17.52L37.64-17.52Q37.36-17.80 37.16-18.48L37.16-18.48L37.16-18.48Q36.96-19.16 37.16-19.16L37.16-19.16L37.16-19.16Q37.48-19.20 37.90-19.86L37.90-19.86L37.90-19.86Q38.32-20.52 38.28-20.96L38.28-20.96L38.28-20.96Q38.28-21.12 38.40-21.26L38.40-21.26L38.40-21.26Q38.52-21.40 38.68-21.44L38.68-21.44L38.68-21.44Q39-21.64 39.24-21.64L39.24-21.64L39.24-21.64Q39.92-21.64 40.48-20.68L40.48-20.68L40.48-20.68Q40.72-20.16 40.72-19.76L40.72-19.76L40.72-19.76Q40.72-19.40 40.52-19.02L40.52-19.02L40.52-19.02Q40.32-18.64 39.80-18.04L39.80-18.04L39.80-18.04Q39.12-17.12 38.52-17.12L38.52-17.12L38.52-17.12Q38.12-17.12 37.64-17.52L37.64-17.52ZM33.76-1.28L33.76-1.28Q33.20-1.84 33.20-2.88L33.20-2.88L33.20-2.88Q33.20-3.44 33.40-3.84L33.40-3.84L33.40-3.84Q33.40-4.04 33.48-4.32L33.48-4.32L33.48-4.32Q33.56-4.60 33.56-4.68L33.56-4.68L33.56-4.68Q33.52-4.92 33.88-6L33.88-6L33.88-6Q34.60-7.60 35.80-11.64L35.80-11.64L35.80-11.64Q35.80-11.84 35.96-11.98L35.96-11.98L35.96-11.98Q36.12-12.12 36.44-12.16L36.44-12.16L36.44-12.16Q36.76-12.24 36.88-12.24L36.88-12.24L36.88-12.24Q37.12-12.24 37.30-12.06L37.30-12.06L37.30-12.06Q37.48-11.88 37.80-11.40L37.80-11.40L37.80-11.40Q38.04-11.16 38.04-10.68L38.04-10.68L38.04-10.68Q38.04-9.92 37.52-8.84L37.52-8.84L37.52-8.84Q37-7.68 36.84-6.84L36.84-6.84L36.84-6.84Q36.36-5.76 36.08-4.84L36.08-4.84L36.08-4.84Q36-4.60 35.84-3.88L35.84-3.88L35.84-3.88Q35.68-3.16 35.40-2.72L35.40-2.72L35.40-2.72Q35.16-1.60 34.96-1.16L34.96-1.16L34.96-1.16Q34.76-0.72 34.52-0.72L34.52-0.72L34.52-0.72Q34.24-0.72 33.76-1.28L33.76-1.28ZM56.64 2L55.04 1.52L55.08 1.40L55.08 1.40Q55.08 1 54.40 0.96L54.40 0.96L54.40 0.96Q53.56 0.44 52.90-0.40L52.90-0.40L52.90-0.40Q52.24-1.24 52-1.88L52-1.88L52-1.88Q51.72-2.52 51.72-2.56L51.72-2.56L51.72-2.56Q51.72-2.68 51.86-2.76L51.86-2.76L51.86-2.76Q52-2.84 52.20-2.96L52.20-2.96L52.20-2.96Q52.44-3.16 52.72-3.16L52.72-3.16L52.72-3.16Q52.88-3.16 53.02-2.98L53.02-2.98L53.02-2.98Q53.16-2.80 53.40-2.36L53.40-2.36L53.40-2.36Q53.88-1.52 55.04-1.02L55.04-1.02L55.04-1.02Q56.20-0.52 57.68-0.52L57.68-0.52L57.68-0.52Q59.48-0.52 61.04-1.24L61.04-1.24L61.04-1.24Q62.08-1.68 62.56-2.10L62.56-2.10L62.56-2.10Q63.04-2.52 63.04-3.04L63.04-3.04L63.04-3.04Q63.04-3.52 62.60-4.20L62.60-4.20L62.60-4.20Q62.48-4.52 62.26-4.78L62.26-4.78L62.26-4.78Q62.04-5.04 61.64-5.40L61.64-5.40L61.64-5.40Q61.40-5.60 60.72-6.28L60.72-6.28L60.72-6.28Q60.08-6.52 59.40-6.92L59.40-6.92L58.56-7.32L58.56-7.32Q57.48-7.80 56.06-8.98L56.06-8.98L56.06-8.98Q54.64-10.16 54.16-11.04L54.16-11.04L54.16-11.04Q53.60-11.56 53.28-12.48L53.28-12.48L53.28-12.48Q52.96-13.40 52.96-14.48L52.96-14.48L52.96-14.48Q52.96-15.92 53.56-17.12L53.56-17.12L53.56-17.12Q54.04-18.20 55.68-20.12L55.68-20.12L55.68-20.12Q57.32-22.04 58.20-22.64L58.20-22.64L59.24-23.64L59.24-23.64Q59.28-23.80 59.36-23.82L59.36-23.82L59.36-23.82Q59.44-23.84 59.48-23.84L59.48-23.84L59.48-23.84Q59.60-23.92 60.32-24.22L60.32-24.22L60.32-24.22Q61.04-24.52 61.84-25.28L61.84-25.28L61.84-25.28Q64.56-26.60 66.22-27.18L66.22-27.18L66.22-27.18Q67.88-27.76 68.96-27.76L68.96-27.76L68.96-27.76Q70.48-27.68 71.54-26.82L71.54-26.82L71.54-26.82Q72.60-25.96 72.80-24.56L72.80-24.56L72.80-24.56Q72.88-24.32 72.88-23.84L72.88-23.84L72.88-23.84Q72.88-22.40 71.84-20.74L71.84-20.74L71.84-20.74Q70.80-19.08 69.48-18.32L69.48-18.32L69.48-18.32Q68.48-17.88 68.08-17.88L68.08-17.88L68.08-17.88Q67.80-17.88 67.70-18.08L67.70-18.08L67.70-18.08Q67.60-18.28 67.64-18.72L67.64-18.72L67.64-18.72Q67.64-19.08 67.90-19.54L67.90-19.54L67.90-19.54Q68.16-20 69.08-21.04L69.08-21.04L69.08-21.04Q70.72-23.40 70.72-24.56L70.72-24.56L70.72-24.56Q70.72-25.24 70.12-25.28L70.12-25.28L70.12-25.28Q69.68-25.40 67.90-25.08L67.90-25.08L67.90-25.08Q66.12-24.76 66.12-24.56L66.12-24.56L66.12-24.56Q66.12-24.52 66.10-24.42L66.10-24.42L66.10-24.42Q66.08-24.32 65.96-24.36L65.96-24.36L65.96-24.36Q65.80-24.40 63-22.70L63-22.70L63-22.70Q60.20-21 60.12-20.80L60.12-20.80L60.12-20.80Q60.08-20.60 59.82-20.38L59.82-20.38L59.82-20.38Q59.56-20.16 59.20-20L59.20-20L59.20-20Q58.44-19.56 57.80-18.72L57.80-18.72L57.80-18.72Q57.16-17.88 56.28-16.32L56.28-16.32L56.28-16.32Q55.80-15.64 55.50-14.84L55.50-14.84L55.50-14.84Q55.20-14.04 55.20-13.40L55.20-13.40L55.20-13.40Q55.20-12.96 55.32-12.64L55.32-12.64L55.32-12.64Q55.52-11.96 56.56-10.98L56.56-10.98L56.56-10.98Q57.60-10 59.16-9.08L59.16-9.08L59.16-9.08Q61.20-7.92 62.58-6.82L62.58-6.82L62.58-6.82Q63.96-5.72 64.32-4.96L64.32-4.96L64.32-4.96Q65.24-3.68 65.24-2.12L65.24-2.12L65.24-2.12Q65.24-1.56 65.12-1.08L65.12-1.08L65.12-1.08Q64.80-0.40 64.12 0.26L64.12 0.26L64.12 0.26Q63.44 0.92 62.96 0.88L62.96 0.88L62.96 0.88Q62.56 1 62.28 1.18L62.28 1.18L62.28 1.18Q62 1.36 61.80 1.44L61.80 1.44L61.80 1.44Q61.36 1.72 59.70 1.90L59.70 1.90L59.70 1.90Q58.04 2.08 56.64 2L56.64 2ZM72.16-2.16L71.92-2.16L71.92-2.16Q71.32-2.16 71-2.44L71-2.44L71-2.44Q70.68-2.72 70.58-2.88L70.58-2.88L70.58-2.88Q70.48-3.04 70.48-3.28L70.48-3.28L70.48-3.28Q70.48-3.44 70.76-4.76L70.76-4.76L71.12-6.08L71.12-6.08Q71.52-7.72 71.84-8.80L71.84-8.80L71.84-8.80Q72-9.80 72.46-10.92L72.46-10.92L72.46-10.92Q72.92-12.04 73-12.28L73-12.28L73-12.28Q73.32-13.44 74.24-15.88L74.24-15.88L75.44-19.12L75.44-19.12Q76.84-22.92 77.12-23.76L77.12-23.76L77.76-25.52L77.76-25.52Q77.76-26.16 78.40-26.16L78.40-26.16L78.40-26.16Q78.96-26.16 79.34-25.54L79.34-25.54L79.34-25.54Q79.72-24.92 79.72-24.12L79.72-24.12L79.72-24.12Q79.72-23.52 79.48-22.96L79.48-22.96L79.48-22.96Q78.92-21.76 78.26-19.94L78.26-19.94L78.26-19.94Q77.60-18.12 77.40-17.56L77.40-17.56L77.40-17.56Q76.04-13.72 75.44-12.44L75.44-12.44L75.44-12.44Q75.44-12.28 75.32-11.88L75.32-11.88L75.32-11.88Q75.20-11.48 75.04-11.16L75.04-11.16L74.60-10.28L74.60-10.28Q74.60-10.16 74.16-8.60L74.16-8.60L74.16-8.60Q73.60-6.88 73.48-6.08L73.48-6.08L73.48-6.08Q73.68-6.44 74.32-7.18L74.32-7.18L74.32-7.18Q74.96-7.92 75.52-8.40L75.52-8.40L75.52-8.40Q77.72-10.28 78.24-10.64L78.24-10.64L78.24-10.64Q78.72-10.92 79.04-11.16L79.04-11.16L79.04-11.16Q79.36-11.40 79.48-11.48L79.48-11.48L79.48-11.48Q79.48-11.68 79.92-11.68L79.92-11.68L79.92-11.68Q80.08-11.68 80.10-11.72L80.10-11.72L80.10-11.72Q80.12-11.76 80.12-11.92L80.12-11.92L80.12-11.92Q80.12-12.20 81.04-12.42L81.04-12.42L81.04-12.42Q81.96-12.64 82.68-12.64L82.68-12.64L82.68-12.64Q83.16-12.64 83.44-12.44L83.44-12.44L83.44-12.44Q83.72-12.24 84.16-11.56L84.16-11.56L84.16-11.56Q84.84-10.60 84.84-9.48L84.84-9.48L84.84-9.48Q84.84-8.84 84.60-8.16L84.60-8.16L84.60-8.16Q84.60-7.84 84.50-7.18L84.50-7.18L84.50-7.18Q84.40-6.52 84.40-6.04L84.40-6.04L84.16-4.76L84.80-4.76L84.80-4.76Q85.08-4.76 85.34-4.68L85.34-4.68L85.34-4.68Q85.60-4.60 85.68-4.56L85.68-4.56L85.68-4.56Q86.04-4.12 86.32-4.12L86.32-4.12L86.32-4.12Q86.68-4.12 86.68-3.84L86.68-3.84L86.68-3.84Q86.68-3.68 86.52-3.44L86.52-3.44L86.52-3.44Q86.36-3.20 86.08-3.04L86.08-3.04L86.08-3.04Q85.04-2.40 84.32-2.40L84.32-2.40L84.32-2.40Q83.64-2.40 82.92-3.04L82.92-3.04L82.92-3.04Q82.04-3.92 82.04-5.16L82.04-5.16L82.04-5.16Q82.04-5.80 82.28-6.68L82.28-6.68L82.40-7.96L82.40-7.96Q82.48-8.92 82.48-9.16L82.48-9.16L82.48-9.16Q82.48-10.08 82.04-10.08L82.04-10.08L82.04-10.08Q81.48-10.08 79.90-9.10L79.90-9.10L79.90-9.10Q78.32-8.12 76.64-6.66L76.64-6.66L76.64-6.66Q74.96-5.20 73.96-3.72L73.96-3.72L73.96-3.72Q73.36-2.96 72.94-2.58L72.94-2.58L72.94-2.58Q72.52-2.20 72.16-2.16L72.16-2.16ZM89.56-1.44L89.56-1.44Q89.44-1.68 89.18-1.94L89.18-1.94L89.18-1.94Q88.92-2.20 88.92-2.28L88.92-2.28L88.92-2.28Q88.92-2.72 88.72-2.96L88.72-2.96L88.72-2.96Q88.64-3.04 88.64-3.32L88.64-3.32L88.64-3.32Q88.64-3.96 89.26-5.50L89.26-5.50L89.26-5.50Q89.88-7.04 90.88-8.84L90.88-8.84L90.88-8.84Q91.12-9.08 91.50-9.68L91.50-9.68L91.50-9.68Q91.88-10.28 92-10.36L92-10.36L92-10.36Q92-10.52 92.12-10.66L92.12-10.66L92.12-10.66Q92.24-10.80 92.40-10.80L92.40-10.80L92.40-11.04L92.40-11.04Q92.40-11.40 93.72-12.78L93.72-12.78L93.72-12.78Q95.04-14.16 95.88-14.68L95.88-14.68L95.88-14.68Q96.88-15.36 97.92-15.36L97.92-15.36L97.92-15.36Q98.64-15.36 99.16-14.96L99.16-14.96L99.16-14.96Q99.36-14.72 101-13.24L101-13.24L102.48-11.92L101.76-9.92L101.76-9.92Q101.40-8.84 101.40-7.96L101.40-7.96L101.40-7.96Q101.40-6.44 102.28-5.04L102.28-5.04L102.28-5.04Q102.48-4.60 103.08-4.20L103.08-4.20L103.08-4.20Q103.68-3.80 104.28-3.72L104.28-3.72L104.28-3.72Q105.16-3.56 105.16-2.84L105.16-2.84L105.16-2.84Q105.16-2.04 104.44-1.88L104.44-1.88L104.44-1.88Q104.28-1.84 103.96-1.84L103.96-1.84L103.96-1.84Q101.60-1.84 99.88-5.16L99.88-5.16L99.88-5.16Q99.72-5.40 99.46-6.04L99.46-6.04L99.46-6.04Q99.20-6.68 99.16-6.92L99.16-6.92L99.16-6.92Q98.92-6.60 98.56-6.16L98.56-6.16L98.56-6.16Q98.20-5.72 97.88-5.40L97.88-5.40L97.88-5.40Q93.52-1.04 91-1.04L91-1.04L91-1.04Q90.20-1.04 89.56-1.44L89.56-1.44ZM91-3.68L91-3.68Q91-3.48 91.42-3.56L91.42-3.56L91.42-3.56Q91.84-3.64 92.46-3.96L92.46-3.96L92.46-3.96Q93.08-4.28 93.72-4.80L93.72-4.80L93.72-4.80Q97.16-7.76 98.68-9.96L98.68-9.96L99.56-11.40L99.56-11.40Q99.16-12.24 98.72-12.62L98.72-12.62L98.72-12.62Q98.28-13 97.92-13L97.92-13L97.92-13Q97.08-13 95.28-10.90L95.28-10.90L95.28-10.90Q93.48-8.80 92-5.96L92-5.96L92-5.96Q91.64-5.28 91.36-4.58L91.36-4.58L91.36-4.58Q91.08-3.88 91-3.68L91-3.68ZM120.92-1.84L120.92-1.84Q120.12-1.84 119.60-2.18L119.60-2.18L119.60-2.18Q119.08-2.52 118.72-3.32L118.72-3.32L118.72-3.32Q118.36-4.60 118.36-5.88L118.36-5.88L118.36-5.88Q118.36-6.48 118.48-6.72L118.48-6.72L118.48-6.72Q118.64-6.88 118.62-7.42L118.62-7.42L118.62-7.42Q118.60-7.96 118.60-8.20L118.60-8.20L118.60-8.20Q118.56-9.12 118.04-9.12L118.04-9.12L118.04-9.12Q117.68-9.12 117.24-8.84L117.24-8.84L117.24-8.84Q115-7.44 113.48-6.44L113.48-6.44L113.48-6.44Q111.96-5.44 110.56-4.20L110.56-4.20L110.56-4.20Q110-3.56 109.72-3.08L109.72-3.08L109.72-3.08Q109.44-2.60 109.32-2.42L109.32-2.42L109.32-2.42Q109.20-2.24 109-2.24L109-2.24L109-2.24Q108.76-2.16 108.68-2.16L108.68-2.16L108.68-2.16Q108.48-2.16 108.20-2.38L108.20-2.38L108.20-2.38Q107.92-2.60 107.84-2.68L107.84-2.68L107.84-2.68Q107.68-2.84 107.32-3.22L107.32-3.22L107.32-3.22Q106.96-3.60 106.92-3.76L106.92-3.76L106.92-3.76Q106.92-4.08 107.18-5.24L107.18-5.24L107.18-5.24Q107.44-6.40 107.60-6.72L107.60-6.72L107.60-6.72Q107.72-6.72 107.96-7.22L107.96-7.22L107.96-7.22Q108.20-7.72 108.40-8L108.40-8L108.40-8Q108.52-8.60 109.44-10.76L109.44-10.76L109.44-10.76Q110-11.72 110.22-12.36L110.22-12.36L110.22-12.36Q110.44-13 110.52-13.96L110.52-13.96L110.52-14.04L110.52-14.04Q110.52-14.20 110.64-14.30L110.64-14.30L110.64-14.30Q110.76-14.40 110.88-14.40L110.88-14.40L110.88-14.40Q111.16-14.60 111.40-14.60L111.40-14.60L111.40-14.60Q111.92-14.60 112.44-13.96L112.44-13.96L112.44-13.96Q113.04-13.20 113.04-12.36L113.04-12.36L113.04-12.36Q113.04-11.32 111.72-9.08L111.72-9.08L111.72-9.08Q111.60-8.80 111.38-8.28L111.38-8.28L111.38-8.28Q111.16-7.76 111.16-7.56L111.16-7.56L113.40-9.08L113.40-9.08Q113.72-9.44 115.12-10.36L115.12-10.36L115.12-10.36Q116.52-11.28 117.08-11.40L117.08-11.40L117.08-11.40Q118.04-11.84 118.28-11.84L118.28-11.84L118.28-11.84Q118.76-11.84 119.58-11.12L119.58-11.12L119.58-11.12Q120.40-10.40 120.56-9.92L120.56-9.92L120.56-9.92Q120.56-9.48 120.64-9.28L120.64-9.28L120.64-9.28Q120.84-8.48 120.84-7.40L120.84-7.40L120.84-7.40Q120.84-6.68 120.74-6.10L120.74-6.10L120.74-6.10Q120.64-5.52 120.48-5.44L120.48-5.44L120.48-5.44Q120.48-5.40 120.52-5.32L120.52-5.32L120.52-5.32Q120.56-5.24 120.68-5.24L120.68-5.24L120.68-5.04L120.68-5.04Q120.36-5.04 120.60-4.36L120.60-4.36L120.60-4.36Q120.84-3.68 121.24-3.32L121.24-3.32L121.24-3.32Q121.64-2.92 121.64-2.52L121.64-2.52L121.64-2.52Q121.64-2.04 120.92-1.84L120.92-1.84ZM125.24-0.20L125.24-0.20Q124.76-0.36 124.24-1.14L124.24-1.14L124.24-1.14Q123.72-1.92 123.72-2.56L123.72-2.56L124.28-4.24L125.04-6.64L125.04-6.64Q125.40-7.16 125.62-7.90L125.62-7.90L125.62-7.90Q125.84-8.64 125.88-8.76L125.88-8.76L125.88-8.76Q126.28-9.52 127.48-12.44L127.48-12.44L128.24-14.28L128.24-14.28Q129.36-16.68 130.08-18.60L130.08-18.60L130.72-20.08L131.48-21.84L131.48-21.84Q132.88-25.24 133.04-25.80L133.04-25.80L133.04-25.80Q133.04-26.12 133.18-26.28L133.18-26.28L133.18-26.28Q133.32-26.44 133.48-26.44L133.48-26.44L133.48-26.44Q133.68-26.64 134.12-26.64L134.12-26.64L134.12-26.64Q134.32-26.64 134.76-26.02L134.76-26.02L134.76-26.02Q135.20-25.40 135.20-24.96L135.20-24.96L135.20-24.96Q135.20-24.28 134.56-22.50L134.56-22.50L134.56-22.50Q133.92-20.72 132.84-18.56L132.84-18.56L132.84-18.56Q128.92-10.12 129.24-9.80L129.24-9.80L129.24-9.80Q129.40-9.88 129.92-10.14L129.92-10.14L129.92-10.14Q130.44-10.40 131-10.80L131-10.80L131-10.80Q131.36-11 131.68-11.22L131.68-11.22L131.68-11.22Q132-11.44 132.24-11.60L132.24-11.60L132.24-11.60Q133.48-12.44 133.76-12.52L133.76-12.52L133.76-12.52Q134-12.68 134.68-13.08L134.68-13.08L134.68-13.08Q135.40-13.56 135.44-13.60L135.44-13.60L135.44-13.60Q135.92-13.84 136.24-13.84L136.24-13.84L136.24-13.84Q136.48-13.84 136.68-13.68L136.68-13.68L136.68-13.68Q136.88-13.52 137.16-13.20L137.16-13.20L137.16-13.20Q137.40-12.92 137.40-12.64L137.40-12.64L137.40-12.64Q137.40-12.36 137.08-12.06L137.08-12.06L137.08-12.06Q136.76-11.76 136-11.28L136-11.28L136-11.28Q135.48-10.92 134.92-10.60L134.92-10.60L134.92-10.60Q134.36-10.28 133.84-9.96L133.84-9.96L133.84-9.96Q130.96-8.20 130.88-8.08L130.88-8.08L130.88-8.08Q130.96-7.92 131.26-7.36L131.26-7.36L131.26-7.36Q131.56-6.80 131.84-6.40L131.84-6.40L132.44-5.36L132.44-5.36Q132.92-4.68 132.92-4.48L132.92-4.48L132.92-4.48Q133.28-3.48 133.90-2.92L133.90-2.92L133.90-2.92Q134.52-2.36 135.24-2.36L135.24-2.36L135.24-2.36Q135.60-2.36 136.08-2.56L136.08-2.56L136.08-2.56Q136.68-2.80 137.04-2.80L137.04-2.80L137.04-2.80Q137.60-2.80 137.80-2.16L137.80-2.16L137.80-2.16Q137.92-1.92 137.92-1.80L137.92-1.80L137.92-1.80Q137.92-1.64 137.36-1.08L137.36-1.08L137.36-1.08Q136.32-0.04 135.24-0.04L135.24-0.04L135.24-0.04Q134.88-0.04 134.40-0.24L134.40-0.24L134.40-0.24Q133.80-0.20 132.90-1.04L132.90-1.04L132.90-1.04Q132-1.88 130.40-3.96L130.40-3.96L130.40-3.96Q130.40-4.12 129.96-5L129.96-5L129.96-5Q129.80-5.36 129.60-5.66L129.60-5.66L129.60-5.66Q129.40-5.96 129.32-6.08L129.32-6.08L129.32-6.08Q129.32-6.24 129.14-6.50L129.14-6.50L129.14-6.50Q128.96-6.76 128.88-6.92L128.88-6.92L128.88-6.92Q128.44-7.04 128.18-6.84L128.18-6.84L128.18-6.84Q127.92-6.64 127.70-6.28L127.70-6.28L127.70-6.28Q127.48-5.92 127.36-5.76L127.36-5.76L127.36-5.76Q126.96-4.72 126.56-3.22L126.56-3.22L126.56-3.22Q126.16-1.72 126.28-1.28L126.28-1.28L126.28-1.28Q126.28-0.64 126.08-0.42L126.08-0.42L126.08-0.42Q125.88-0.20 125.24-0.20L125.24-0.20ZM139.64-1.44L139.64-1.44Q139.52-1.68 139.26-1.94L139.26-1.94L139.26-1.94Q139-2.20 139-2.28L139-2.28L139-2.28Q139-2.72 138.80-2.96L138.80-2.96L138.80-2.96Q138.72-3.04 138.72-3.32L138.72-3.32L138.72-3.32Q138.72-3.96 139.34-5.50L139.34-5.50L139.34-5.50Q139.96-7.04 140.96-8.84L140.96-8.84L140.96-8.84Q141.20-9.08 141.58-9.68L141.58-9.68L141.58-9.68Q141.96-10.28 142.08-10.36L142.08-10.36L142.08-10.36Q142.08-10.52 142.20-10.66L142.20-10.66L142.20-10.66Q142.32-10.80 142.48-10.80L142.48-10.80L142.48-11.04L142.48-11.04Q142.48-11.40 143.80-12.78L143.80-12.78L143.80-12.78Q145.12-14.16 145.96-14.68L145.96-14.68L145.96-14.68Q146.96-15.36 148-15.36L148-15.36L148-15.36Q148.72-15.36 149.24-14.96L149.24-14.96L149.24-14.96Q149.44-14.72 151.08-13.24L151.08-13.24L152.56-11.92L151.84-9.92L151.84-9.92Q151.48-8.84 151.48-7.96L151.48-7.96L151.48-7.96Q151.48-6.44 152.36-5.04L152.36-5.04L152.36-5.04Q152.56-4.60 153.16-4.20L153.16-4.20L153.16-4.20Q153.76-3.80 154.36-3.72L154.36-3.72L154.36-3.72Q155.24-3.56 155.24-2.84L155.24-2.84L155.24-2.84Q155.24-2.04 154.52-1.88L154.52-1.88L154.52-1.88Q154.36-1.84 154.04-1.84L154.04-1.84L154.04-1.84Q151.68-1.84 149.96-5.16L149.96-5.16L149.96-5.16Q149.80-5.40 149.54-6.04L149.54-6.04L149.54-6.04Q149.28-6.68 149.24-6.92L149.24-6.92L149.24-6.92Q149-6.60 148.64-6.16L148.64-6.16L148.64-6.16Q148.28-5.72 147.96-5.40L147.96-5.40L147.96-5.40Q143.60-1.04 141.08-1.04L141.08-1.04L141.08-1.04Q140.28-1.04 139.64-1.44L139.64-1.44ZM141.08-3.68L141.08-3.68Q141.08-3.48 141.50-3.56L141.50-3.56L141.50-3.56Q141.92-3.64 142.54-3.96L142.54-3.96L142.54-3.96Q143.16-4.28 143.80-4.80L143.80-4.80L143.80-4.80Q147.24-7.76 148.76-9.96L148.76-9.96L149.64-11.40L149.64-11.40Q149.24-12.24 148.80-12.62L148.80-12.62L148.80-12.62Q148.36-13 148-13L148-13L148-13Q147.16-13 145.36-10.90L145.36-10.90L145.36-10.90Q143.56-8.80 142.08-5.96L142.08-5.96L142.08-5.96Q141.72-5.28 141.44-4.58L141.44-4.58L141.44-4.58Q141.16-3.88 141.08-3.68L141.08-3.68ZM157.60-1.40L157.60-1.40Q157.28-1.64 157.16-1.84L157.16-1.84L157.16-1.84Q157.04-2.04 157.04-2.44L157.04-2.44L157.04-2.44Q157.04-2.80 157.08-3.04L157.08-3.04L157.08-3.04Q157.20-4.40 157.68-6.20L157.68-6.20L157.88-7L157.88-7Q158-8 159.28-11.20L159.28-11.20L159.28-11.20Q160.56-14.40 161.36-15.56L161.36-15.56L161.36-15.56Q161.68-15.76 162.04-15.76L162.04-15.76L162.04-15.76Q162.56-15.76 162.92-15.40L162.92-15.40L162.92-15.40Q163.16-15.24 163.16-14.80L163.16-14.80L163.16-14.80Q163.16-14.40 162.86-13.62L162.86-13.62L162.86-13.62Q162.56-12.84 161.84-11.32L161.84-11.32L161.84-11.32Q161.68-11 161.30-10.12L161.30-10.12L161.30-10.12Q160.92-9.24 160.92-9.08L160.92-9.08L160.92-9.08Q160.92-9 160.96-9L160.96-9L160.96-9Q161.04-9 161.12-9.06L161.12-9.06L161.12-9.06Q161.20-9.12 161.28-9.16L161.28-9.16L161.28-9.16Q161.72-9.92 163.42-11.24L163.42-11.24L163.42-11.24Q165.12-12.56 165.76-12.88L165.76-12.88L165.76-12.88Q166.04-13.04 166.48-13.20L166.48-13.20L166.48-13.20Q166.92-13.36 167.08-13.44L167.08-13.44L167.08-13.44Q167.72-13.76 168.60-13.76L168.60-13.76L168.60-13.76Q169.16-13.76 169.58-13.58L169.58-13.58L169.58-13.58Q170-13.40 170.16-13.04L170.16-13.04L170.16-13.04Q170.20-12.76 170.38-12.60L170.38-12.60L170.38-12.60Q170.56-12.44 170.64-12.40L170.64-12.40L170.64-12.40Q170.76-12.40 170.80-12.30L170.80-12.30L170.80-12.30Q170.84-12.20 170.84-12.16L170.84-12.16L170.84-12.16Q170.84-11.88 170.52-11.82L170.52-11.82L170.52-11.82Q170.20-11.76 169.36-11.72L169.36-11.72L169.36-11.72Q168.92-11.68 168.44-11.52L168.44-11.52L168.44-11.52Q167.96-11.36 167.48-11.12L167.48-11.12L167.48-11.12Q165.24-9.84 164.14-9.12L164.14-9.12L164.14-9.12Q163.04-8.40 161.92-7.16L161.92-7.16L161.92-7.16Q161.48-6.68 160.76-5.44L160.76-5.44L160.76-5.44Q160.48-5.16 160.18-3.98L160.18-3.98L160.18-3.98Q159.88-2.80 159.88-2.52L159.88-2.52L159.88-2.52Q159.84-2.40 159.72-2.06L159.72-2.06L159.72-2.06Q159.60-1.72 159.36-1.40L159.36-1.40L159.36-1.40Q158.88-0.76 158.56-0.76L158.56-0.76L158.56-0.76Q158.20-0.76 157.60-1.40L157.60-1.40Z" fill="url(#editing-shiny-gradient2)"></path></g></g><style>text {
  font-size: 64px;
  font-family: Arial Black;
  dominant-baseline: central;
  text-anchor: middle;
}</style></svg>