<svg width="381.14375px" height="125.61248779296875px" xmlns="http://www.w3.org/2000/svg" viewBox="59.428124999999994 12.193756103515625 381.14375 125.61248779296875" style="background: rgb(253, 253, 253);" preserveAspectRatio="xMidYMid"><defs><linearGradient id="editing-shiny-gradient" x1="0.04322727117869957" x2="0.9567727288213004" y1="0.2966316784620999" y2="0.7033683215379001" gradientUnits="objectBoundingBox"><stop offset="0.0" stop-color="#00c5fe"></stop><stop offset="0.5" stop-color="#ff257c"></stop><stop offset="1.0" stop-color="#925555"></stop></linearGradient><linearGradient id="editing-shiny-gradient2" x1="0" x2="0" y1="0" y2="1"><stop offset="0.2" stop-color="#fff" stop-opacity="0.8"></stop><stop offset="0.8" stop-color="#fff" stop-opacity="0"></stop></linearGradient><filter id="editing-shiny2" x="-100%" y="-100%" width="300%" height="300%"><feMorphology operator="erode" radius="2"></feMorphology></filter><filter id="editing-shiny" x="-100%" y="-100%" width="300%" height="300%"><feFlood flood-color="#fff" result="flood"></feFlood><feConvolveMatrix in="SourceGraphic" result="conv" order="8,8" divisor="1" kernelMatrix="0 0 0 0 0 0 0 0 0 0 0 1 1 0 0 0 0 0 0 1 1 0 0 0 0 0 1 0 0 1 0 0 0 0 1 0 0 1 0 0 0 1 0 0 0 0 1 0 0 1 1 0 0 1 1 0 0 0 0 1 1 0 0 0 "></feConvolveMatrix><feOffset dx="0" dy="4" in="conv" result="offset"></feOffset><feComposite operator="in" in="flood" in2="offset" result="comp"></feComposite><feGaussianBlur in="offset" stdDeviation="3" result="shadow"></feGaussianBlur><feColorMatrix in="shadow" type="matrix" values="0.7 0 0 0 0  0 0.7 0 0 0  0 0 0.7 0 0  0 0 0 0.3 0" result="dark-shadow"></feColorMatrix><feOffset dx="0" dy="4" in="dark-shadow" result="offset-shadow"></feOffset><feOffset dx="0" dy="2" in="conv" result="offset-2"></feOffset><feComposite operator="out" in="offset" in2="offset-2" result="edge-diff"></feComposite><feGaussianBlur in="edge-diff" stdDeviation="1" result="edge-blur"></feGaussianBlur><feColorMatrix in="edge-blur" result="edge-shadow" type="matrix" values="0 0 0 0 0  0 0 0 0 0  0 0 0 0 0  0 0 0 0.5 0"></feColorMatrix><feComposite operator="in" in="edge-shadow" in2="offset" result="edge-shadow-in"></feComposite><feOffset dx="0" dy="1" in="edge-shadow-in" result="edge-shadow-final"></feOffset><feMerge result="out"><feMergeNode in="offset-shadow"></feMergeNode><feMergeNode in="comp"></feMergeNode><feMergeNode in="edge-shadow-final"></feMergeNode><feMergeNode in="SourceGraphic"></feMergeNode></feMerge></filter></defs><g filter="url(#editing-shiny)"><g transform="translate(120.44281196594238, 102.54812431335449)"><path d="M5.52 11.22L5.52 11.22Q4.40 11.66 3.53 11.66L3.53 11.66L3.53 11.66Q2.11 11.66 0.68 11.01L0.68 11.01L0.68 11.01Q-0.74 10.35-1.80 9.18L-1.80 9.18L-1.80 9.18Q-2.42 8.56-2.42 7.87L-2.42 7.87L-2.42 7.87Q-2.42 7.50-2.23 6.94L-2.23 6.94L-2.23 6.94Q-1.92 5.83-1.43 5.83L-1.43 5.83L-1.43 5.83Q-1.18 5.83-0.71 6.17L-0.71 6.17L-0.71 6.17Q-0.25 6.51 0.12 7.01L0.12 7.01L0.12 7.01Q1.36 8.06 2.48 8.06L2.48 8.06L2.48 8.06Q4.71 8.06 7.19 4.22L7.19 4.22L8.80 0.62L8.80 0.62Q12.28-7.01 12.71-8.31L12.71-8.31L12.71-8.31Q12.71-8.37 12.77-8.56L12.77-8.56L12.77-8.56Q12.83-8.74 13.02-8.99L13.02-8.99L13.02-8.99Q13.08-9.24 13.36-10.04L13.36-10.04L13.36-10.04Q13.64-10.85 13.83-11.72L13.83-11.72L16.43-19.10L16.43-19.10Q16.68-20.34 17.14-21.79L17.14-21.79L17.14-21.79Q17.61-23.25 17.98-24.24L17.98-24.24L17.98-24.24Q18.23-24.74 19.84-29.57L19.84-29.57L19.84-29.57Q20.58-31.93 21.14-33.60L21.14-33.60L21.14-33.60Q21.39-34.35 22.07-36.58L22.07-36.58L22.07-36.58Q22.75-38.81 22.63-39.00L22.63-39.00L19.16-38.38L19.16-38.38Q18.48-38.07 17.48-38.07L17.48-38.07L17.48-38.07Q16.86-38.07 16.46-38.19L16.46-38.19L16.46-38.19Q16.06-38.32 16.12-38.50L16.12-38.50L16.12-38.81L16.12-38.81Q15.81-38.56 15.28-39.15L15.28-39.15L15.28-39.15Q14.76-39.74 14.82-40.24L14.82-40.24L14.82-40.24Q14.82-40.73 16.03-41.14L16.03-41.14L16.03-41.14Q17.24-41.54 19.22-41.79L19.22-41.79L23.68-42.41L23.68-42.41Q23.99-42.66 25.23-42.19L25.23-42.19L25.23-42.19Q26.47-41.73 26.97-41.23L26.97-41.23L26.97-41.23Q27.47-40.55 27.47-39.87L27.47-39.87L27.47-39.87Q27.47-39.00 26.94-37.42L26.94-37.42L26.94-37.42Q26.41-35.84 24.55-30.81L24.55-30.81L22.51-25.05L22.51-25.05Q21.02-20.52 20.21-18.66L20.21-18.66L20.21-18.66Q19.96-17.86 19.53-16.68L19.53-16.68L19.53-16.68Q18.48-13.64 17.98-11.84L17.98-11.84L17.98-11.84Q17.24-10.11 16.37-7.13L16.37-7.13L16.37-7.13Q16.37-6.63 16.12-6.01L16.12-6.01L16.12-6.01Q15.87-5.39 15.56-5.08L15.56-5.08L14.07-1.43L13.52 0.06L13.52 0.06Q13.39 0.43 12.87 1.74L12.87 1.74L12.87 1.74Q12.34 3.04 11.90 3.66L11.90 3.66L11.90 3.66Q11.72 4.15 11.22 4.96L11.22 4.96L11.22 4.96Q10.73 5.77 10.73 5.95L10.73 5.95L10.73 5.95Q10.73 6.01 10.66 6.17L10.66 6.17L10.66 6.17Q10.60 6.32 10.42 6.32L10.42 6.32L10.42 6.32Q10.35 6.39 10.20 6.54L10.20 6.54L10.20 6.54Q10.04 6.70 10.04 6.94L10.04 6.94L10.04 6.94Q9.73 7.69 8.12 9.24L8.12 9.24L8.12 9.24Q6.51 10.79 5.52 11.22L5.52 11.22ZM24.99-2.23L24.99-2.23Q24.80-2.60 24.40-3.01L24.40-3.01L24.40-3.01Q23.99-3.41 23.99-3.53L23.99-3.53L23.99-3.53Q23.99-4.22 23.68-4.59L23.68-4.59L23.68-4.59Q23.56-4.71 23.56-5.15L23.56-5.15L23.56-5.15Q23.56-6.14 24.52-8.53L24.52-8.53L24.52-8.53Q25.48-10.91 27.03-13.70L27.03-13.70L27.03-13.70Q27.40-14.07 27.99-15.00L27.99-15.00L27.99-15.00Q28.58-15.93 28.77-16.06L28.77-16.06L28.77-16.06Q28.77-16.31 28.95-16.52L28.95-16.52L28.95-16.52Q29.14-16.74 29.39-16.74L29.39-16.74L29.39-17.11L29.39-17.11Q29.39-17.67 31.43-19.81L31.43-19.81L31.43-19.81Q33.48-21.95 34.78-22.75L34.78-22.75L34.78-22.75Q36.33-23.81 37.94-23.81L37.94-23.81L37.94-23.81Q39.06-23.81 39.87-23.19L39.87-23.19L39.87-23.19Q40.18-22.82 42.72-20.52L42.72-20.52L45.01-18.48L43.90-15.38L43.90-15.38Q43.34-13.70 43.34-12.34L43.34-12.34L43.34-12.34Q43.34-9.98 44.70-7.81L44.70-7.81L44.70-7.81Q45.01-7.13 45.94-6.51L45.94-6.51L45.94-6.51Q46.87-5.89 47.80-5.77L47.80-5.77L47.80-5.77Q49.17-5.52 49.17-4.40L49.17-4.40L49.17-4.40Q49.17-3.16 48.05-2.91L48.05-2.91L48.05-2.91Q47.80-2.85 47.31-2.85L47.31-2.85L47.31-2.85Q43.65-2.85 40.98-8.00L40.98-8.00L40.98-8.00Q40.73-8.37 40.33-9.36L40.33-9.36L40.33-9.36Q39.93-10.35 39.87-10.73L39.87-10.73L39.87-10.73Q39.49-10.23 38.94-9.55L38.94-9.55L38.94-9.55Q38.38-8.87 37.88-8.37L37.88-8.37L37.88-8.37Q31.12-1.61 27.22-1.61L27.22-1.61L27.22-1.61Q25.98-1.61 24.99-2.23L24.99-2.23ZM27.22-5.70L27.22-5.70Q27.22-5.39 27.87-5.52L27.87-5.52L27.87-5.52Q28.52-5.64 29.48-6.14L29.48-6.14L29.48-6.14Q30.44-6.63 31.43-7.44L31.43-7.44L31.43-7.44Q36.77-12.03 39.12-15.44L39.12-15.44L40.49-17.67L40.49-17.67Q39.87-18.97 39.18-19.56L39.18-19.56L39.18-19.56Q38.50-20.15 37.94-20.15L37.94-20.15L37.94-20.15Q36.64-20.15 33.85-16.89L33.85-16.89L33.85-16.89Q31.06-13.64 28.77-9.24L28.77-9.24L28.77-9.24Q28.21-8.18 27.78-7.10L27.78-7.10L27.78-7.10Q27.34-6.01 27.22-5.70L27.22-5.70ZM58.34-27.16L58.34-27.16Q57.91-27.59 57.60-28.64L57.60-28.64L57.60-28.64Q57.29-29.70 57.60-29.70L57.60-29.70L57.60-29.70Q58.09-29.76 58.74-30.78L58.74-30.78L58.74-30.78Q59.40-31.81 59.33-32.49L59.33-32.49L59.33-32.49Q59.33-32.74 59.52-32.95L59.52-32.95L59.52-32.95Q59.71-33.17 59.95-33.23L59.95-33.23L59.95-33.23Q60.45-33.54 60.82-33.54L60.82-33.54L60.82-33.54Q61.88-33.54 62.74-32.05L62.74-32.05L62.74-32.05Q63.12-31.25 63.12-30.63L63.12-30.63L63.12-30.63Q63.12-30.07 62.81-29.48L62.81-29.48L62.81-29.48Q62.50-28.89 61.69-27.96L61.69-27.96L61.69-27.96Q60.64-26.54 59.71-26.54L59.71-26.54L59.71-26.54Q59.09-26.54 58.34-27.16L58.34-27.16ZM52.33-1.98L52.33-1.98Q51.46-2.85 51.46-4.46L51.46-4.46L51.46-4.46Q51.46-5.33 51.77-5.95L51.77-5.95L51.77-5.95Q51.77-6.26 51.89-6.70L51.89-6.70L51.89-6.70Q52.02-7.13 52.02-7.25L52.02-7.25L52.02-7.25Q51.96-7.63 52.51-9.30L52.51-9.30L52.51-9.30Q53.63-11.78 55.49-18.04L55.49-18.04L55.49-18.04Q55.49-18.35 55.74-18.57L55.74-18.57L55.74-18.57Q55.99-18.79 56.48-18.85L56.48-18.85L56.48-18.85Q56.98-18.97 57.16-18.97L57.16-18.97L57.16-18.97Q57.54-18.97 57.81-18.69L57.81-18.69L57.81-18.69Q58.09-18.41 58.59-17.67L58.59-17.67L58.59-17.67Q58.96-17.30 58.96-16.55L58.96-16.55L58.96-16.55Q58.96-15.38 58.16-13.70L58.16-13.70L58.16-13.70Q57.35-11.90 57.10-10.60L57.10-10.60L57.10-10.60Q56.36-8.93 55.92-7.50L55.92-7.50L55.92-7.50Q55.80-7.13 55.55-6.01L55.55-6.01L55.55-6.01Q55.30-4.90 54.87-4.22L54.87-4.22L54.87-4.22Q54.50-2.48 54.19-1.80L54.19-1.80L54.19-1.80Q53.88-1.12 53.51-1.12L53.51-1.12L53.51-1.12Q53.07-1.12 52.33-1.98L52.33-1.98ZM87.79 3.10L85.31 2.36L85.37 2.17L85.37 2.17Q85.37 1.55 84.32 1.49L84.32 1.49L84.32 1.49Q83.02 0.68 82.00-0.62L82.00-0.62L82.00-0.62Q80.97-1.92 80.60-2.91L80.60-2.91L80.60-2.91Q80.17-3.91 80.17-3.97L80.17-3.97L80.17-3.97Q80.17-4.15 80.38-4.28L80.38-4.28L80.38-4.28Q80.60-4.40 80.91-4.59L80.91-4.59L80.91-4.59Q81.28-4.90 81.72-4.90L81.72-4.90L81.72-4.90Q81.96-4.90 82.18-4.62L82.18-4.62L82.18-4.62Q82.40-4.34 82.77-3.66L82.77-3.66L82.77-3.66Q83.51-2.36 85.31-1.58L85.31-1.58L85.31-1.58Q87.11-0.81 89.40-0.81L89.40-0.81L89.40-0.81Q92.19-0.81 94.61-1.92L94.61-1.92L94.61-1.92Q96.22-2.60 96.97-3.25L96.97-3.25L96.97-3.25Q97.71-3.91 97.71-4.71L97.71-4.71L97.71-4.71Q97.71-5.46 97.03-6.51L97.03-6.51L97.03-6.51Q96.84-7.01 96.50-7.41L96.50-7.41L96.50-7.41Q96.16-7.81 95.54-8.37L95.54-8.37L95.54-8.37Q95.17-8.68 94.12-9.73L94.12-9.73L94.12-9.73Q93.12-10.11 92.07-10.73L92.07-10.73L90.77-11.35L90.77-11.35Q89.09-12.09 86.89-13.92L86.89-13.92L86.89-13.92Q84.69-15.75 83.95-17.11L83.95-17.11L83.95-17.11Q83.08-17.92 82.58-19.34L82.58-19.34L82.58-19.34Q82.09-20.77 82.09-22.44L82.09-22.44L82.09-22.44Q82.09-24.68 83.02-26.54L83.02-26.54L83.02-26.54Q83.76-28.21 86.30-31.19L86.30-31.19L86.30-31.19Q88.85-34.16 90.21-35.09L90.21-35.09L91.82-36.64L91.82-36.64Q91.88-36.89 92.01-36.92L92.01-36.92L92.01-36.92Q92.13-36.95 92.19-36.95L92.19-36.95L92.19-36.95Q92.38-37.08 93.50-37.54L93.50-37.54L93.50-37.54Q94.61-38.01 95.85-39.18L95.85-39.18L95.85-39.18Q100.07-41.23 102.64-42.13L102.64-42.13L102.64-42.13Q105.21-43.03 106.89-43.03L106.89-43.03L106.89-43.03Q109.24-42.90 110.89-41.57L110.89-41.57L110.89-41.57Q112.53-40.24 112.84-38.07L112.84-38.07L112.84-38.07Q112.96-37.70 112.96-36.95L112.96-36.95L112.96-36.95Q112.96-34.72 111.35-32.15L111.35-32.15L111.35-32.15Q109.74-29.57 107.69-28.40L107.69-28.40L107.69-28.40Q106.14-27.71 105.52-27.71L105.52-27.71L105.52-27.71Q105.09-27.71 104.94-28.02L104.94-28.02L104.94-28.02Q104.78-28.33 104.84-29.02L104.84-29.02L104.84-29.02Q104.84-29.57 105.25-30.29L105.25-30.29L105.25-30.29Q105.65-31 107.07-32.61L107.07-32.61L107.07-32.61Q109.62-36.27 109.62-38.07L109.62-38.07L109.62-38.07Q109.62-39.12 108.69-39.18L108.69-39.18L108.69-39.18Q108.00-39.37 105.25-38.87L105.25-38.87L105.25-38.87Q102.49-38.38 102.49-38.07L102.49-38.07L102.49-38.07Q102.49-38.01 102.45-37.85L102.45-37.85L102.45-37.85Q102.42-37.70 102.24-37.76L102.24-37.76L102.24-37.76Q101.99-37.82 97.65-35.19L97.65-35.19L97.65-35.19Q93.31-32.55 93.19-32.24L93.19-32.24L93.19-32.24Q93.12-31.93 92.72-31.59L92.72-31.59L92.72-31.59Q92.32-31.25 91.76-31L91.76-31L91.76-31Q90.58-30.32 89.59-29.02L89.59-29.02L89.59-29.02Q88.60-27.71 87.23-25.30L87.23-25.30L87.23-25.30Q86.49-24.24 86.02-23.00L86.02-23.00L86.02-23.00Q85.56-21.76 85.56-20.77L85.56-20.77L85.56-20.77Q85.56-20.09 85.75-19.59L85.75-19.59L85.75-19.59Q86.06-18.54 87.67-17.02L87.67-17.02L87.67-17.02Q89.28-15.50 91.70-14.07L91.70-14.07L91.70-14.07Q94.86-12.28 97.00-10.57L97.00-10.57L97.00-10.57Q99.14-8.87 99.70-7.69L99.70-7.69L99.70-7.69Q101.12-5.70 101.12-3.29L101.12-3.29L101.12-3.29Q101.12-2.42 100.94-1.67L100.94-1.67L100.94-1.67Q100.44-0.62 99.39 0.40L99.39 0.40L99.39 0.40Q98.33 1.43 97.59 1.36L97.59 1.36L97.59 1.36Q96.97 1.55 96.53 1.83L96.53 1.83L96.53 1.83Q96.10 2.11 95.79 2.23L95.79 2.23L95.79 2.23Q95.11 2.67 92.53 2.94L92.53 2.94L92.53 2.94Q89.96 3.22 87.79 3.10L87.79 3.10ZM111.85-3.35L111.48-3.35L111.48-3.35Q110.55-3.35 110.05-3.78L110.05-3.78L110.05-3.78Q109.55-4.22 109.40-4.46L109.40-4.46L109.40-4.46Q109.24-4.71 109.24-5.08L109.24-5.08L109.24-5.08Q109.24-5.33 109.68-7.38L109.68-7.38L110.24-9.42L110.24-9.42Q110.86-11.97 111.35-13.64L111.35-13.64L111.35-13.64Q111.60-15.19 112.31-16.93L112.31-16.93L112.31-16.93Q113.03-18.66 113.15-19.03L113.15-19.03L113.15-19.03Q113.65-20.83 115.07-24.61L115.07-24.61L116.93-29.64L116.93-29.64Q119.10-35.53 119.54-36.83L119.54-36.83L120.53-39.56L120.53-39.56Q120.53-40.55 121.52-40.55L121.52-40.55L121.52-40.55Q122.39-40.55 122.98-39.59L122.98-39.59L122.98-39.59Q123.57-38.63 123.57-37.39L123.57-37.39L123.57-37.39Q123.57-36.46 123.19-35.59L123.19-35.59L123.19-35.59Q122.33-33.73 121.30-30.91L121.30-30.91L121.30-30.91Q120.28-28.09 119.97-27.22L119.97-27.22L119.97-27.22Q117.86-21.27 116.93-19.28L116.93-19.28L116.93-19.28Q116.93-19.03 116.75-18.41L116.75-18.41L116.75-18.41Q116.56-17.79 116.31-17.30L116.31-17.30L115.63-15.93L115.63-15.93Q115.63-15.75 114.95-13.33L114.95-13.33L114.95-13.33Q114.08-10.66 113.89-9.42L113.89-9.42L113.89-9.42Q114.20-9.98 115.20-11.13L115.20-11.13L115.20-11.13Q116.19-12.28 117.06-13.02L117.06-13.02L117.06-13.02Q120.47-15.93 121.27-16.49L121.27-16.49L121.27-16.49Q122.02-16.93 122.51-17.30L122.51-17.30L122.51-17.30Q123.01-17.67 123.19-17.79L123.19-17.79L123.19-17.79Q123.19-18.10 123.88-18.10L123.88-18.10L123.88-18.10Q124.12-18.10 124.16-18.17L124.16-18.17L124.16-18.17Q124.19-18.23 124.19-18.48L124.19-18.48L124.19-18.48Q124.19-18.91 125.61-19.25L125.61-19.25L125.61-19.25Q127.04-19.59 128.15-19.59L128.15-19.59L128.15-19.59Q128.90-19.59 129.33-19.28L129.33-19.28L129.33-19.28Q129.77-18.97 130.45-17.92L130.45-17.92L130.45-17.92Q131.50-16.43 131.50-14.69L131.50-14.69L131.50-14.69Q131.50-13.70 131.13-12.65L131.13-12.65L131.13-12.65Q131.13-12.15 130.97-11.13L130.97-11.13L130.97-11.13Q130.82-10.11 130.82-9.36L130.82-9.36L130.45-7.38L131.44-7.38L131.44-7.38Q131.87-7.38 132.28-7.25L132.28-7.25L132.28-7.25Q132.68-7.13 132.80-7.07L132.80-7.07L132.80-7.07Q133.36-6.39 133.80-6.39L133.80-6.39L133.80-6.39Q134.35-6.39 134.35-5.95L134.35-5.95L134.35-5.95Q134.35-5.70 134.11-5.33L134.11-5.33L134.11-5.33Q133.86-4.96 133.42-4.71L133.42-4.71L133.42-4.71Q131.81-3.72 130.70-3.72L130.70-3.72L130.70-3.72Q129.64-3.72 128.53-4.71L128.53-4.71L128.53-4.71Q127.16-6.08 127.16-8.00L127.16-8.00L127.16-8.00Q127.16-8.99 127.53-10.35L127.53-10.35L127.72-12.34L127.72-12.34Q127.84-13.83 127.84-14.20L127.84-14.20L127.84-14.20Q127.84-15.62 127.16-15.62L127.16-15.62L127.16-15.62Q126.29-15.62 123.84-14.11L123.84-14.11L123.84-14.11Q121.40-12.59 118.79-10.32L118.79-10.32L118.79-10.32Q116.19-8.06 114.64-5.77L114.64-5.77L114.64-5.77Q113.71-4.59 113.06-4.00L113.06-4.00L113.06-4.00Q112.41-3.41 111.85-3.35L111.85-3.35ZM138.82-2.23L138.82-2.23Q138.63-2.60 138.23-3.01L138.23-3.01L138.23-3.01Q137.83-3.41 137.83-3.53L137.83-3.53L137.83-3.53Q137.83-4.22 137.52-4.59L137.52-4.59L137.52-4.59Q137.39-4.71 137.39-5.15L137.39-5.15L137.39-5.15Q137.39-6.14 138.35-8.53L138.35-8.53L138.35-8.53Q139.31-10.91 140.86-13.70L140.86-13.70L140.86-13.70Q141.24-14.07 141.82-15.00L141.82-15.00L141.82-15.00Q142.41-15.93 142.60-16.06L142.60-16.06L142.60-16.06Q142.60-16.31 142.79-16.52L142.79-16.52L142.79-16.52Q142.97-16.74 143.22-16.74L143.22-16.74L143.22-17.11L143.22-17.11Q143.22-17.67 145.27-19.81L145.27-19.81L145.27-19.81Q147.31-21.95 148.61-22.75L148.61-22.75L148.61-22.75Q150.16-23.81 151.78-23.81L151.78-23.81L151.78-23.81Q152.89-23.81 153.70-23.19L153.70-23.19L153.70-23.19Q154.01-22.82 156.55-20.52L156.55-20.52L158.84-18.48L157.73-15.38L157.73-15.38Q157.17-13.70 157.17-12.34L157.17-12.34L157.17-12.34Q157.17-9.98 158.53-7.81L158.53-7.81L158.53-7.81Q158.84-7.13 159.77-6.51L159.77-6.51L159.77-6.51Q160.70-5.89 161.63-5.77L161.63-5.77L161.63-5.77Q163.00-5.52 163.00-4.40L163.00-4.40L163.00-4.40Q163.00-3.16 161.88-2.91L161.88-2.91L161.88-2.91Q161.63-2.85 161.14-2.85L161.14-2.85L161.14-2.85Q157.48-2.85 154.81-8.00L154.81-8.00L154.81-8.00Q154.57-8.37 154.16-9.36L154.16-9.36L154.16-9.36Q153.76-10.35 153.70-10.73L153.70-10.73L153.70-10.73Q153.33-10.23 152.77-9.55L152.77-9.55L152.77-9.55Q152.21-8.87 151.71-8.37L151.71-8.37L151.71-8.37Q144.96-1.61 141.05-1.61L141.05-1.61L141.05-1.61Q139.81-1.61 138.82-2.23L138.82-2.23ZM141.05-5.70L141.05-5.70Q141.05-5.39 141.70-5.52L141.70-5.52L141.70-5.52Q142.35-5.64 143.31-6.14L143.31-6.14L143.31-6.14Q144.27-6.63 145.27-7.44L145.27-7.44L145.27-7.44Q150.60-12.03 152.95-15.44L152.95-15.44L154.32-17.67L154.32-17.67Q153.70-18.97 153.02-19.56L153.02-19.56L153.02-19.56Q152.33-20.15 151.78-20.15L151.78-20.15L151.78-20.15Q150.47-20.15 147.68-16.89L147.68-16.89L147.68-16.89Q144.89-13.64 142.60-9.24L142.60-9.24L142.60-9.24Q142.04-8.18 141.61-7.10L141.61-7.10L141.61-7.10Q141.17-6.01 141.05-5.70L141.05-5.70ZM187.43-2.85L187.43-2.85Q186.19-2.85 185.38-3.38L185.38-3.38L185.38-3.38Q184.57-3.91 184.02-5.15L184.02-5.15L184.02-5.15Q183.46-7.13 183.46-9.11L183.46-9.11L183.46-9.11Q183.46-10.04 183.64-10.42L183.64-10.42L183.64-10.42Q183.89-10.66 183.86-11.50L183.86-11.50L183.86-11.50Q183.83-12.34 183.83-12.71L183.83-12.71L183.83-12.71Q183.77-14.14 182.96-14.14L182.96-14.14L182.96-14.14Q182.40-14.14 181.72-13.70L181.72-13.70L181.72-13.70Q178.25-11.53 175.89-9.98L175.89-9.98L175.89-9.98Q173.54-8.43 171.37-6.51L171.37-6.51L171.37-6.51Q170.50-5.52 170.07-4.77L170.07-4.77L170.07-4.77Q169.63-4.03 169.45-3.75L169.45-3.75L169.45-3.75Q169.26-3.47 168.95-3.47L168.95-3.47L168.95-3.47Q168.58-3.35 168.45-3.35L168.45-3.35L168.45-3.35Q168.14-3.35 167.71-3.69L167.71-3.69L167.71-3.69Q167.28-4.03 167.15-4.15L167.15-4.15L167.15-4.15Q166.90-4.40 166.35-4.99L166.35-4.99L166.35-4.99Q165.79-5.58 165.73-5.83L165.73-5.83L165.73-5.83Q165.73-6.32 166.13-8.12L166.13-8.12L166.13-8.12Q166.53-9.92 166.78-10.42L166.78-10.42L166.78-10.42Q166.97-10.42 167.34-11.19L167.34-11.19L167.34-11.19Q167.71-11.97 168.02-12.40L168.02-12.40L168.02-12.40Q168.21-13.33 169.63-16.68L169.63-16.68L169.63-16.68Q170.50-18.17 170.84-19.16L170.84-19.16L170.84-19.16Q171.18-20.15 171.31-21.64L171.31-21.64L171.31-21.76L171.31-21.76Q171.31-22.01 171.49-22.16L171.49-22.16L171.49-22.16Q171.68-22.32 171.86-22.32L171.86-22.32L171.86-22.32Q172.30-22.63 172.67-22.63L172.67-22.63L172.67-22.63Q173.48-22.63 174.28-21.64L174.28-21.64L174.28-21.64Q175.21-20.46 175.21-19.16L175.21-19.16L175.21-19.16Q175.21-17.55 173.17-14.07L173.17-14.07L173.17-14.07Q172.98-13.64 172.64-12.83L172.64-12.83L172.64-12.83Q172.30-12.03 172.30-11.72L172.30-11.72L175.77-14.07L175.77-14.07Q176.27-14.63 178.44-16.06L178.44-16.06L178.44-16.06Q180.61-17.48 181.47-17.67L181.47-17.67L181.47-17.67Q182.96-18.35 183.33-18.35L183.33-18.35L183.33-18.35Q184.08-18.35 185.35-17.24L185.35-17.24L185.35-17.24Q186.62-16.12 186.87-15.38L186.87-15.38L186.87-15.38Q186.87-14.69 186.99-14.38L186.99-14.38L186.99-14.38Q187.30-13.14 187.30-11.47L187.30-11.47L187.30-11.47Q187.30-10.35 187.15-9.46L187.15-9.46L187.15-9.46Q186.99-8.56 186.74-8.43L186.74-8.43L186.74-8.43Q186.74-8.37 186.81-8.25L186.81-8.25L186.81-8.25Q186.87-8.12 187.05-8.12L187.05-8.12L187.05-7.81L187.05-7.81Q186.56-7.81 186.93-6.76L186.93-6.76L186.93-6.76Q187.30-5.70 187.92-5.15L187.92-5.15L187.92-5.15Q188.54-4.53 188.54-3.91L188.54-3.91L188.54-3.91Q188.54-3.16 187.43-2.85L187.43-2.85ZM194.12-0.31L194.12-0.31Q193.38-0.56 192.57-1.77L192.57-1.77L192.57-1.77Q191.77-2.98 191.77-3.97L191.77-3.97L192.63-6.57L193.81-10.29L193.81-10.29Q194.37-11.10 194.71-12.24L194.71-12.24L194.71-12.24Q195.05-13.39 195.11-13.58L195.11-13.58L195.11-13.58Q195.73-14.76 197.59-19.28L197.59-19.28L198.77-22.13L198.77-22.13Q200.51-25.85 201.62-28.83L201.62-28.83L202.62-31.12L203.79-33.85L203.79-33.85Q205.96-39.12 206.21-39.99L206.21-39.99L206.21-39.99Q206.21-40.49 206.43-40.73L206.43-40.73L206.43-40.73Q206.65-40.98 206.89-40.98L206.89-40.98L206.89-40.98Q207.20-41.29 207.89-41.29L207.89-41.29L207.89-41.29Q208.20-41.29 208.88-40.33L208.88-40.33L208.88-40.33Q209.56-39.37 209.56-38.69L209.56-38.69L209.56-38.69Q209.56-37.63 208.57-34.88L208.57-34.88L208.57-34.88Q207.58-32.12 205.90-28.77L205.90-28.77L205.90-28.77Q199.83-15.69 200.32-15.19L200.32-15.19L200.32-15.19Q200.57-15.31 201.38-15.72L201.38-15.72L201.38-15.72Q202.18-16.12 203.05-16.74L203.05-16.74L203.05-16.74Q203.61-17.05 204.10-17.39L204.10-17.39L204.10-17.39Q204.60-17.73 204.97-17.98L204.97-17.98L204.97-17.98Q206.89-19.28 207.33-19.41L207.33-19.41L207.33-19.41Q207.70-19.65 208.75-20.27L208.75-20.27L208.75-20.27Q209.87-21.02 209.93-21.08L209.93-21.08L209.93-21.08Q210.68-21.45 211.17-21.45L211.17-21.45L211.17-21.45Q211.54-21.45 211.85-21.20L211.85-21.20L211.85-21.20Q212.16-20.96 212.60-20.46L212.60-20.46L212.60-20.46Q212.97-20.03 212.97-19.59L212.97-19.59L212.97-19.59Q212.97-19.16 212.47-18.69L212.47-18.69L212.47-18.69Q211.98-18.23 210.80-17.48L210.80-17.48L210.80-17.48Q209.99-16.93 209.13-16.43L209.13-16.43L209.13-16.43Q208.26-15.93 207.45-15.44L207.45-15.44L207.45-15.44Q202.99-12.71 202.86-12.52L202.86-12.52L202.86-12.52Q202.99-12.28 203.45-11.41L203.45-11.41L203.45-11.41Q203.92-10.54 204.35-9.92L204.35-9.92L205.28-8.31L205.28-8.31Q206.03-7.25 206.03-6.94L206.03-6.94L206.03-6.94Q206.58-5.39 207.54-4.53L207.54-4.53L207.54-4.53Q208.51-3.66 209.62-3.66L209.62-3.66L209.62-3.66Q210.18-3.66 210.92-3.97L210.92-3.97L210.92-3.97Q211.85-4.34 212.41-4.34L212.41-4.34L212.41-4.34Q213.28-4.34 213.59-3.35L213.59-3.35L213.59-3.35Q213.78-2.98 213.78-2.79L213.78-2.79L213.78-2.79Q213.78-2.54 212.91-1.67L212.91-1.67L212.91-1.67Q211.30-0.06 209.62-0.06L209.62-0.06L209.62-0.06Q209.06-0.06 208.32-0.37L208.32-0.37L208.32-0.37Q207.39-0.31 206.00-1.61L206.00-1.61L206.00-1.61Q204.60-2.91 202.12-6.14L202.12-6.14L202.12-6.14Q202.12-6.39 201.44-7.75L201.44-7.75L201.44-7.75Q201.19-8.31 200.88-8.77L200.88-8.77L200.88-8.77Q200.57-9.24 200.45-9.42L200.45-9.42L200.45-9.42Q200.45-9.67 200.17-10.07L200.17-10.07L200.17-10.07Q199.89-10.48 199.76-10.73L199.76-10.73L199.76-10.73Q199.08-10.91 198.68-10.60L198.68-10.60L198.68-10.60Q198.28-10.29 197.94-9.73L197.94-9.73L197.94-9.73Q197.59-9.18 197.41-8.93L197.41-8.93L197.41-8.93Q196.79-7.32 196.17-4.99L196.17-4.99L196.17-4.99Q195.55-2.67 195.73-1.98L195.73-1.98L195.73-1.98Q195.73-0.99 195.42-0.65L195.42-0.65L195.42-0.65Q195.11-0.31 194.12-0.31L194.12-0.31ZM216.44-2.23L216.44-2.23Q216.26-2.60 215.85-3.01L215.85-3.01L215.85-3.01Q215.45-3.41 215.45-3.53L215.45-3.53L215.45-3.53Q215.45-4.22 215.14-4.59L215.14-4.59L215.14-4.59Q215.02-4.71 215.02-5.15L215.02-5.15L215.02-5.15Q215.02-6.14 215.98-8.53L215.98-8.53L215.98-8.53Q216.94-10.91 218.49-13.70L218.49-13.70L218.49-13.70Q218.86-14.07 219.45-15.00L219.45-15.00L219.45-15.00Q220.04-15.93 220.22-16.06L220.22-16.06L220.22-16.06Q220.22-16.31 220.41-16.52L220.41-16.52L220.41-16.52Q220.60-16.74 220.84-16.74L220.84-16.74L220.84-17.11L220.84-17.11Q220.84-17.67 222.89-19.81L222.89-19.81L222.89-19.81Q224.94-21.95 226.24-22.75L226.24-22.75L226.24-22.75Q227.79-23.81 229.40-23.81L229.40-23.81L229.40-23.81Q230.52-23.81 231.32-23.19L231.32-23.19L231.32-23.19Q231.63-22.82 234.17-20.52L234.17-20.52L236.47-18.48L235.35-15.38L235.35-15.38Q234.79-13.70 234.79-12.34L234.79-12.34L234.79-12.34Q234.79-9.98 236.16-7.81L236.16-7.81L236.16-7.81Q236.47-7.13 237.40-6.51L237.40-6.51L237.40-6.51Q238.33-5.89 239.26-5.77L239.26-5.77L239.26-5.77Q240.62-5.52 240.62-4.40L240.62-4.40L240.62-4.40Q240.62-3.16 239.51-2.91L239.51-2.91L239.51-2.91Q239.26-2.85 238.76-2.85L238.76-2.85L238.76-2.85Q235.10-2.85 232.44-8.00L232.44-8.00L232.44-8.00Q232.19-8.37 231.79-9.36L231.79-9.36L231.79-9.36Q231.38-10.35 231.32-10.73L231.32-10.73L231.32-10.73Q230.95-10.23 230.39-9.55L230.39-9.55L230.39-9.55Q229.83-8.87 229.34-8.37L229.34-8.37L229.34-8.37Q222.58-1.61 218.67-1.61L218.67-1.61L218.67-1.61Q217.43-1.61 216.44-2.23L216.44-2.23ZM218.67-5.70L218.67-5.70Q218.67-5.39 219.32-5.52L219.32-5.52L219.32-5.52Q219.98-5.64 220.94-6.14L220.94-6.14L220.94-6.14Q221.90-6.63 222.89-7.44L222.89-7.44L222.89-7.44Q228.22-12.03 230.58-15.44L230.58-15.44L231.94-17.67L231.94-17.67Q231.32-18.97 230.64-19.56L230.64-19.56L230.64-19.56Q229.96-20.15 229.40-20.15L229.40-20.15L229.40-20.15Q228.10-20.15 225.31-16.89L225.31-16.89L225.31-16.89Q222.52-13.64 220.22-9.24L220.22-9.24L220.22-9.24Q219.67-8.18 219.23-7.10L219.23-7.10L219.23-7.10Q218.80-6.01 218.67-5.70L218.67-5.70ZM244.28-2.17L244.28-2.17Q243.78-2.54 243.60-2.85L243.60-2.85L243.60-2.85Q243.41-3.16 243.41-3.78L243.41-3.78L243.41-3.78Q243.41-4.34 243.47-4.71L243.47-4.71L243.47-4.71Q243.66-6.82 244.40-9.61L244.40-9.61L244.71-10.85L244.71-10.85Q244.90-12.40 246.88-17.36L246.88-17.36L246.88-17.36Q248.87-22.32 250.11-24.12L250.11-24.12L250.11-24.12Q250.60-24.43 251.16-24.43L251.16-24.43L251.16-24.43Q251.97-24.43 252.53-23.87L252.53-23.87L252.53-23.87Q252.90-23.62 252.90-22.94L252.90-22.94L252.90-22.94Q252.90-22.32 252.43-21.11L252.43-21.11L252.43-21.11Q251.97-19.90 250.85-17.55L250.85-17.55L250.85-17.55Q250.60-17.05 250.01-15.69L250.01-15.69L250.01-15.69Q249.43-14.32 249.43-14.07L249.43-14.07L249.43-14.07Q249.43-13.95 249.49-13.95L249.49-13.95L249.49-13.95Q249.61-13.95 249.74-14.04L249.74-14.04L249.74-14.04Q249.86-14.14 249.98-14.20L249.98-14.20L249.98-14.20Q250.67-15.38 253.30-17.42L253.30-17.42L253.30-17.42Q255.94-19.47 256.93-19.96L256.93-19.96L256.93-19.96Q257.36-20.21 258.04-20.46L258.04-20.46L258.04-20.46Q258.73-20.71 258.97-20.83L258.97-20.83L258.97-20.83Q259.97-21.33 261.33-21.33L261.33-21.33L261.33-21.33Q262.20-21.33 262.85-21.05L262.85-21.05L262.85-21.05Q263.50-20.77 263.75-20.21L263.75-20.21L263.75-20.21Q263.81-19.78 264.09-19.53L264.09-19.53L264.09-19.53Q264.37-19.28 264.49-19.22L264.49-19.22L264.49-19.22Q264.68-19.22 264.74-19.07L264.74-19.07L264.74-19.07Q264.80-18.91 264.80-18.85L264.80-18.85L264.80-18.85Q264.80-18.41 264.31-18.32L264.31-18.32L264.31-18.32Q263.81-18.23 262.51-18.17L262.51-18.17L262.51-18.17Q261.83-18.10 261.08-17.86L261.08-17.86L261.08-17.86Q260.34-17.61 259.59-17.24L259.59-17.24L259.59-17.24Q256.12-15.25 254.42-14.14L254.42-14.14L254.42-14.14Q252.71-13.02 250.98-11.10L250.98-11.10L250.98-11.10Q250.29-10.35 249.18-8.43L249.18-8.43L249.18-8.43Q248.74-8.00 248.28-6.17L248.28-6.17L248.28-6.17Q247.81-4.34 247.81-3.91L247.81-3.91L247.81-3.91Q247.75-3.72 247.57-3.19L247.57-3.19L247.57-3.19Q247.38-2.67 247.01-2.17L247.01-2.17L247.01-2.17Q246.26-1.18 245.77-1.18L245.77-1.18L245.77-1.18Q245.21-1.18 244.28-2.17L244.28-2.17Z" fill="url(#editing-shiny-gradient)"></path></g></g><g filter="url(#editing-shiny2)"><g transform="translate(120.65374946594238, 102.34499931335449)"><path d="M5.52 11.22L5.52 11.22Q4.40 11.66 3.53 11.66L3.53 11.66L3.53 11.66Q2.11 11.66 0.68 11.01L0.68 11.01L0.68 11.01Q-0.74 10.35-1.80 9.18L-1.80 9.18L-1.80 9.18Q-2.42 8.56-2.42 7.87L-2.42 7.87L-2.42 7.87Q-2.42 7.50-2.23 6.94L-2.23 6.94L-2.23 6.94Q-1.92 5.83-1.43 5.83L-1.43 5.83L-1.43 5.83Q-1.18 5.83-0.71 6.17L-0.71 6.17L-0.71 6.17Q-0.25 6.51 0.12 7.01L0.12 7.01L0.12 7.01Q1.36 8.06 2.48 8.06L2.48 8.06L2.48 8.06Q4.71 8.06 7.19 4.22L7.19 4.22L8.80 0.62L8.80 0.62Q12.28-7.01 12.71-8.31L12.71-8.31L12.71-8.31Q12.71-8.37 12.77-8.56L12.77-8.56L12.77-8.56Q12.83-8.74 13.02-8.99L13.02-8.99L13.02-8.99Q13.08-9.24 13.36-10.04L13.36-10.04L13.36-10.04Q13.64-10.85 13.83-11.72L13.83-11.72L16.43-19.10L16.43-19.10Q16.68-20.34 17.14-21.79L17.14-21.79L17.14-21.79Q17.61-23.25 17.98-24.24L17.98-24.24L17.98-24.24Q18.23-24.74 19.84-29.57L19.84-29.57L19.84-29.57Q20.58-31.93 21.14-33.60L21.14-33.60L21.14-33.60Q21.39-34.35 22.07-36.58L22.07-36.58L22.07-36.58Q22.75-38.81 22.63-39.00L22.63-39.00L19.16-38.38L19.16-38.38Q18.48-38.07 17.48-38.07L17.48-38.07L17.48-38.07Q16.86-38.07 16.46-38.19L16.46-38.19L16.46-38.19Q16.06-38.32 16.12-38.50L16.12-38.50L16.12-38.81L16.12-38.81Q15.81-38.56 15.28-39.15L15.28-39.15L15.28-39.15Q14.76-39.74 14.82-40.24L14.82-40.24L14.82-40.24Q14.82-40.73 16.03-41.14L16.03-41.14L16.03-41.14Q17.24-41.54 19.22-41.79L19.22-41.79L23.68-42.41L23.68-42.41Q23.99-42.66 25.23-42.19L25.23-42.19L25.23-42.19Q26.47-41.73 26.97-41.23L26.97-41.23L26.97-41.23Q27.47-40.55 27.47-39.87L27.47-39.87L27.47-39.87Q27.47-39.00 26.94-37.42L26.94-37.42L26.94-37.42Q26.41-35.84 24.55-30.81L24.55-30.81L22.51-25.05L22.51-25.05Q21.02-20.52 20.21-18.66L20.21-18.66L20.21-18.66Q19.96-17.86 19.53-16.68L19.53-16.68L19.53-16.68Q18.48-13.64 17.98-11.84L17.98-11.84L17.98-11.84Q17.24-10.11 16.37-7.13L16.37-7.13L16.37-7.13Q16.37-6.63 16.12-6.01L16.12-6.01L16.12-6.01Q15.87-5.39 15.56-5.08L15.56-5.08L14.07-1.43L13.52 0.06L13.52 0.06Q13.39 0.43 12.87 1.74L12.87 1.74L12.87 1.74Q12.34 3.04 11.90 3.66L11.90 3.66L11.90 3.66Q11.72 4.15 11.22 4.96L11.22 4.96L11.22 4.96Q10.73 5.77 10.73 5.95L10.73 5.95L10.73 5.95Q10.73 6.01 10.66 6.17L10.66 6.17L10.66 6.17Q10.60 6.32 10.42 6.32L10.42 6.32L10.42 6.32Q10.35 6.39 10.20 6.54L10.20 6.54L10.20 6.54Q10.04 6.70 10.04 6.94L10.04 6.94L10.04 6.94Q9.73 7.69 8.12 9.24L8.12 9.24L8.12 9.24Q6.51 10.79 5.52 11.22L5.52 11.22ZM24.99-2.23L24.99-2.23Q24.80-2.60 24.40-3.01L24.40-3.01L24.40-3.01Q23.99-3.41 23.99-3.53L23.99-3.53L23.99-3.53Q23.99-4.22 23.68-4.59L23.68-4.59L23.68-4.59Q23.56-4.71 23.56-5.15L23.56-5.15L23.56-5.15Q23.56-6.14 24.52-8.53L24.52-8.53L24.52-8.53Q25.48-10.91 27.03-13.70L27.03-13.70L27.03-13.70Q27.40-14.07 27.99-15.00L27.99-15.00L27.99-15.00Q28.58-15.93 28.77-16.06L28.77-16.06L28.77-16.06Q28.77-16.31 28.95-16.52L28.95-16.52L28.95-16.52Q29.14-16.74 29.39-16.74L29.39-16.74L29.39-17.11L29.39-17.11Q29.39-17.67 31.43-19.81L31.43-19.81L31.43-19.81Q33.48-21.95 34.78-22.75L34.78-22.75L34.78-22.75Q36.33-23.81 37.94-23.81L37.94-23.81L37.94-23.81Q39.06-23.81 39.87-23.19L39.87-23.19L39.87-23.19Q40.18-22.82 42.72-20.52L42.72-20.52L45.01-18.48L43.90-15.38L43.90-15.38Q43.34-13.70 43.34-12.34L43.34-12.34L43.34-12.34Q43.34-9.98 44.70-7.81L44.70-7.81L44.70-7.81Q45.01-7.13 45.94-6.51L45.94-6.51L45.94-6.51Q46.87-5.89 47.80-5.77L47.80-5.77L47.80-5.77Q49.17-5.52 49.17-4.40L49.17-4.40L49.17-4.40Q49.17-3.16 48.05-2.91L48.05-2.91L48.05-2.91Q47.80-2.85 47.31-2.85L47.31-2.85L47.31-2.85Q43.65-2.85 40.98-8.00L40.98-8.00L40.98-8.00Q40.73-8.37 40.33-9.36L40.33-9.36L40.33-9.36Q39.93-10.35 39.87-10.73L39.87-10.73L39.87-10.73Q39.49-10.23 38.94-9.55L38.94-9.55L38.94-9.55Q38.38-8.87 37.88-8.37L37.88-8.37L37.88-8.37Q31.12-1.61 27.22-1.61L27.22-1.61L27.22-1.61Q25.98-1.61 24.99-2.23L24.99-2.23ZM27.22-5.70L27.22-5.70Q27.22-5.39 27.87-5.52L27.87-5.52L27.87-5.52Q28.52-5.64 29.48-6.14L29.48-6.14L29.48-6.14Q30.44-6.63 31.43-7.44L31.43-7.44L31.43-7.44Q36.77-12.03 39.12-15.44L39.12-15.44L40.49-17.67L40.49-17.67Q39.87-18.97 39.18-19.56L39.18-19.56L39.18-19.56Q38.50-20.15 37.94-20.15L37.94-20.15L37.94-20.15Q36.64-20.15 33.85-16.89L33.85-16.89L33.85-16.89Q31.06-13.64 28.77-9.24L28.77-9.24L28.77-9.24Q28.21-8.18 27.78-7.10L27.78-7.10L27.78-7.10Q27.34-6.01 27.22-5.70L27.22-5.70ZM58.34-27.16L58.34-27.16Q57.91-27.59 57.60-28.64L57.60-28.64L57.60-28.64Q57.29-29.70 57.60-29.70L57.60-29.70L57.60-29.70Q58.09-29.76 58.74-30.78L58.74-30.78L58.74-30.78Q59.40-31.81 59.33-32.49L59.33-32.49L59.33-32.49Q59.33-32.74 59.52-32.95L59.52-32.95L59.52-32.95Q59.71-33.17 59.95-33.23L59.95-33.23L59.95-33.23Q60.45-33.54 60.82-33.54L60.82-33.54L60.82-33.54Q61.88-33.54 62.74-32.05L62.74-32.05L62.74-32.05Q63.12-31.25 63.12-30.63L63.12-30.63L63.12-30.63Q63.12-30.07 62.81-29.48L62.81-29.48L62.81-29.48Q62.50-28.89 61.69-27.96L61.69-27.96L61.69-27.96Q60.64-26.54 59.71-26.54L59.71-26.54L59.71-26.54Q59.09-26.54 58.34-27.16L58.34-27.16ZM52.33-1.98L52.33-1.98Q51.46-2.85 51.46-4.46L51.46-4.46L51.46-4.46Q51.46-5.33 51.77-5.95L51.77-5.95L51.77-5.95Q51.77-6.26 51.89-6.70L51.89-6.70L51.89-6.70Q52.02-7.13 52.02-7.25L52.02-7.25L52.02-7.25Q51.96-7.63 52.51-9.30L52.51-9.30L52.51-9.30Q53.63-11.78 55.49-18.04L55.49-18.04L55.49-18.04Q55.49-18.35 55.74-18.57L55.74-18.57L55.74-18.57Q55.99-18.79 56.48-18.85L56.48-18.85L56.48-18.85Q56.98-18.97 57.16-18.97L57.16-18.97L57.16-18.97Q57.54-18.97 57.81-18.69L57.81-18.69L57.81-18.69Q58.09-18.41 58.59-17.67L58.59-17.67L58.59-17.67Q58.96-17.30 58.96-16.55L58.96-16.55L58.96-16.55Q58.96-15.38 58.16-13.70L58.16-13.70L58.16-13.70Q57.35-11.90 57.10-10.60L57.10-10.60L57.10-10.60Q56.36-8.93 55.92-7.50L55.92-7.50L55.92-7.50Q55.80-7.13 55.55-6.01L55.55-6.01L55.55-6.01Q55.30-4.90 54.87-4.22L54.87-4.22L54.87-4.22Q54.50-2.48 54.19-1.80L54.19-1.80L54.19-1.80Q53.88-1.12 53.51-1.12L53.51-1.12L53.51-1.12Q53.07-1.12 52.33-1.98L52.33-1.98ZM87.79 3.10L85.31 2.36L85.37 2.17L85.37 2.17Q85.37 1.55 84.32 1.49L84.32 1.49L84.32 1.49Q83.02 0.68 82.00-0.62L82.00-0.62L82.00-0.62Q80.97-1.92 80.60-2.91L80.60-2.91L80.60-2.91Q80.17-3.91 80.17-3.97L80.17-3.97L80.17-3.97Q80.17-4.15 80.38-4.28L80.38-4.28L80.38-4.28Q80.60-4.40 80.91-4.59L80.91-4.59L80.91-4.59Q81.28-4.90 81.72-4.90L81.72-4.90L81.72-4.90Q81.96-4.90 82.18-4.62L82.18-4.62L82.18-4.62Q82.40-4.34 82.77-3.66L82.77-3.66L82.77-3.66Q83.51-2.36 85.31-1.58L85.31-1.58L85.31-1.58Q87.11-0.81 89.40-0.81L89.40-0.81L89.40-0.81Q92.19-0.81 94.61-1.92L94.61-1.92L94.61-1.92Q96.22-2.60 96.97-3.25L96.97-3.25L96.97-3.25Q97.71-3.91 97.71-4.71L97.71-4.71L97.71-4.71Q97.71-5.46 97.03-6.51L97.03-6.51L97.03-6.51Q96.84-7.01 96.50-7.41L96.50-7.41L96.50-7.41Q96.16-7.81 95.54-8.37L95.54-8.37L95.54-8.37Q95.17-8.68 94.12-9.73L94.12-9.73L94.12-9.73Q93.12-10.11 92.07-10.73L92.07-10.73L90.77-11.35L90.77-11.35Q89.09-12.09 86.89-13.92L86.89-13.92L86.89-13.92Q84.69-15.75 83.95-17.11L83.95-17.11L83.95-17.11Q83.08-17.92 82.58-19.34L82.58-19.34L82.58-19.34Q82.09-20.77 82.09-22.44L82.09-22.44L82.09-22.44Q82.09-24.68 83.02-26.54L83.02-26.54L83.02-26.54Q83.76-28.21 86.30-31.19L86.30-31.19L86.30-31.19Q88.85-34.16 90.21-35.09L90.21-35.09L91.82-36.64L91.82-36.64Q91.88-36.89 92.01-36.92L92.01-36.92L92.01-36.92Q92.13-36.95 92.19-36.95L92.19-36.95L92.19-36.95Q92.38-37.08 93.50-37.54L93.50-37.54L93.50-37.54Q94.61-38.01 95.85-39.18L95.85-39.18L95.85-39.18Q100.07-41.23 102.64-42.13L102.64-42.13L102.64-42.13Q105.21-43.03 106.89-43.03L106.89-43.03L106.89-43.03Q109.24-42.90 110.89-41.57L110.89-41.57L110.89-41.57Q112.53-40.24 112.84-38.07L112.84-38.07L112.84-38.07Q112.96-37.70 112.96-36.95L112.96-36.95L112.96-36.95Q112.96-34.72 111.35-32.15L111.35-32.15L111.35-32.15Q109.74-29.57 107.69-28.40L107.69-28.40L107.69-28.40Q106.14-27.71 105.52-27.71L105.52-27.71L105.52-27.71Q105.09-27.71 104.94-28.02L104.94-28.02L104.94-28.02Q104.78-28.33 104.84-29.02L104.84-29.02L104.84-29.02Q104.84-29.57 105.25-30.29L105.25-30.29L105.25-30.29Q105.65-31 107.07-32.61L107.07-32.61L107.07-32.61Q109.62-36.27 109.62-38.07L109.62-38.07L109.62-38.07Q109.62-39.12 108.69-39.18L108.69-39.18L108.69-39.18Q108.00-39.37 105.25-38.87L105.25-38.87L105.25-38.87Q102.49-38.38 102.49-38.07L102.49-38.07L102.49-38.07Q102.49-38.01 102.45-37.85L102.45-37.85L102.45-37.85Q102.42-37.70 102.24-37.76L102.24-37.76L102.24-37.76Q101.99-37.82 97.65-35.19L97.65-35.19L97.65-35.19Q93.31-32.55 93.19-32.24L93.19-32.24L93.19-32.24Q93.12-31.93 92.72-31.59L92.72-31.59L92.72-31.59Q92.32-31.25 91.76-31L91.76-31L91.76-31Q90.58-30.32 89.59-29.02L89.59-29.02L89.59-29.02Q88.60-27.71 87.23-25.30L87.23-25.30L87.23-25.30Q86.49-24.24 86.02-23.00L86.02-23.00L86.02-23.00Q85.56-21.76 85.56-20.77L85.56-20.77L85.56-20.77Q85.56-20.09 85.75-19.59L85.75-19.59L85.75-19.59Q86.06-18.54 87.67-17.02L87.67-17.02L87.67-17.02Q89.28-15.50 91.70-14.07L91.70-14.07L91.70-14.07Q94.86-12.28 97.00-10.57L97.00-10.57L97.00-10.57Q99.14-8.87 99.70-7.69L99.70-7.69L99.70-7.69Q101.12-5.70 101.12-3.29L101.12-3.29L101.12-3.29Q101.12-2.42 100.94-1.67L100.94-1.67L100.94-1.67Q100.44-0.62 99.39 0.40L99.39 0.40L99.39 0.40Q98.33 1.43 97.59 1.36L97.59 1.36L97.59 1.36Q96.97 1.55 96.53 1.83L96.53 1.83L96.53 1.83Q96.10 2.11 95.79 2.23L95.79 2.23L95.79 2.23Q95.11 2.67 92.53 2.94L92.53 2.94L92.53 2.94Q89.96 3.22 87.79 3.10L87.79 3.10ZM111.85-3.35L111.48-3.35L111.48-3.35Q110.55-3.35 110.05-3.78L110.05-3.78L110.05-3.78Q109.55-4.22 109.40-4.46L109.40-4.46L109.40-4.46Q109.24-4.71 109.24-5.08L109.24-5.08L109.24-5.08Q109.24-5.33 109.68-7.38L109.68-7.38L110.24-9.42L110.24-9.42Q110.86-11.97 111.35-13.64L111.35-13.64L111.35-13.64Q111.60-15.19 112.31-16.93L112.31-16.93L112.31-16.93Q113.03-18.66 113.15-19.03L113.15-19.03L113.15-19.03Q113.65-20.83 115.07-24.61L115.07-24.61L116.93-29.64L116.93-29.64Q119.10-35.53 119.54-36.83L119.54-36.83L120.53-39.56L120.53-39.56Q120.53-40.55 121.52-40.55L121.52-40.55L121.52-40.55Q122.39-40.55 122.98-39.59L122.98-39.59L122.98-39.59Q123.57-38.63 123.57-37.39L123.57-37.39L123.57-37.39Q123.57-36.46 123.19-35.59L123.19-35.59L123.19-35.59Q122.33-33.73 121.30-30.91L121.30-30.91L121.30-30.91Q120.28-28.09 119.97-27.22L119.97-27.22L119.97-27.22Q117.86-21.27 116.93-19.28L116.93-19.28L116.93-19.28Q116.93-19.03 116.75-18.41L116.75-18.41L116.75-18.41Q116.56-17.79 116.31-17.30L116.31-17.30L115.63-15.93L115.63-15.93Q115.63-15.75 114.95-13.33L114.95-13.33L114.95-13.33Q114.08-10.66 113.89-9.42L113.89-9.42L113.89-9.42Q114.20-9.98 115.20-11.13L115.20-11.13L115.20-11.13Q116.19-12.28 117.06-13.02L117.06-13.02L117.06-13.02Q120.47-15.93 121.27-16.49L121.27-16.49L121.27-16.49Q122.02-16.93 122.51-17.30L122.51-17.30L122.51-17.30Q123.01-17.67 123.19-17.79L123.19-17.79L123.19-17.79Q123.19-18.10 123.88-18.10L123.88-18.10L123.88-18.10Q124.12-18.10 124.16-18.17L124.16-18.17L124.16-18.17Q124.19-18.23 124.19-18.48L124.19-18.48L124.19-18.48Q124.19-18.91 125.61-19.25L125.61-19.25L125.61-19.25Q127.04-19.59 128.15-19.59L128.15-19.59L128.15-19.59Q128.90-19.59 129.33-19.28L129.33-19.28L129.33-19.28Q129.77-18.97 130.45-17.92L130.45-17.92L130.45-17.92Q131.50-16.43 131.50-14.69L131.50-14.69L131.50-14.69Q131.50-13.70 131.13-12.65L131.13-12.65L131.13-12.65Q131.13-12.15 130.97-11.13L130.97-11.13L130.97-11.13Q130.82-10.11 130.82-9.36L130.82-9.36L130.45-7.38L131.44-7.38L131.44-7.38Q131.87-7.38 132.28-7.25L132.28-7.25L132.28-7.25Q132.68-7.13 132.80-7.07L132.80-7.07L132.80-7.07Q133.36-6.39 133.80-6.39L133.80-6.39L133.80-6.39Q134.35-6.39 134.35-5.95L134.35-5.95L134.35-5.95Q134.35-5.70 134.11-5.33L134.11-5.33L134.11-5.33Q133.86-4.96 133.42-4.71L133.42-4.71L133.42-4.71Q131.81-3.72 130.70-3.72L130.70-3.72L130.70-3.72Q129.64-3.72 128.53-4.71L128.53-4.71L128.53-4.71Q127.16-6.08 127.16-8.00L127.16-8.00L127.16-8.00Q127.16-8.99 127.53-10.35L127.53-10.35L127.72-12.34L127.72-12.34Q127.84-13.83 127.84-14.20L127.84-14.20L127.84-14.20Q127.84-15.62 127.16-15.62L127.16-15.62L127.16-15.62Q126.29-15.62 123.84-14.11L123.84-14.11L123.84-14.11Q121.40-12.59 118.79-10.32L118.79-10.32L118.79-10.32Q116.19-8.06 114.64-5.77L114.64-5.77L114.64-5.77Q113.71-4.59 113.06-4.00L113.06-4.00L113.06-4.00Q112.41-3.41 111.85-3.35L111.85-3.35ZM138.82-2.23L138.82-2.23Q138.63-2.60 138.23-3.01L138.23-3.01L138.23-3.01Q137.83-3.41 137.83-3.53L137.83-3.53L137.83-3.53Q137.83-4.22 137.52-4.59L137.52-4.59L137.52-4.59Q137.39-4.71 137.39-5.15L137.39-5.15L137.39-5.15Q137.39-6.14 138.35-8.53L138.35-8.53L138.35-8.53Q139.31-10.91 140.86-13.70L140.86-13.70L140.86-13.70Q141.24-14.07 141.82-15.00L141.82-15.00L141.82-15.00Q142.41-15.93 142.60-16.06L142.60-16.06L142.60-16.06Q142.60-16.31 142.79-16.52L142.79-16.52L142.79-16.52Q142.97-16.74 143.22-16.74L143.22-16.74L143.22-17.11L143.22-17.11Q143.22-17.67 145.27-19.81L145.27-19.81L145.27-19.81Q147.31-21.95 148.61-22.75L148.61-22.75L148.61-22.75Q150.16-23.81 151.78-23.81L151.78-23.81L151.78-23.81Q152.89-23.81 153.70-23.19L153.70-23.19L153.70-23.19Q154.01-22.82 156.55-20.52L156.55-20.52L158.84-18.48L157.73-15.38L157.73-15.38Q157.17-13.70 157.17-12.34L157.17-12.34L157.17-12.34Q157.17-9.98 158.53-7.81L158.53-7.81L158.53-7.81Q158.84-7.13 159.77-6.51L159.77-6.51L159.77-6.51Q160.70-5.89 161.63-5.77L161.63-5.77L161.63-5.77Q163.00-5.52 163.00-4.40L163.00-4.40L163.00-4.40Q163.00-3.16 161.88-2.91L161.88-2.91L161.88-2.91Q161.63-2.85 161.14-2.85L161.14-2.85L161.14-2.85Q157.48-2.85 154.81-8.00L154.81-8.00L154.81-8.00Q154.57-8.37 154.16-9.36L154.16-9.36L154.16-9.36Q153.76-10.35 153.70-10.73L153.70-10.73L153.70-10.73Q153.33-10.23 152.77-9.55L152.77-9.55L152.77-9.55Q152.21-8.87 151.71-8.37L151.71-8.37L151.71-8.37Q144.96-1.61 141.05-1.61L141.05-1.61L141.05-1.61Q139.81-1.61 138.82-2.23L138.82-2.23ZM141.05-5.70L141.05-5.70Q141.05-5.39 141.70-5.52L141.70-5.52L141.70-5.52Q142.35-5.64 143.31-6.14L143.31-6.14L143.31-6.14Q144.27-6.63 145.27-7.44L145.27-7.44L145.27-7.44Q150.60-12.03 152.95-15.44L152.95-15.44L154.32-17.67L154.32-17.67Q153.70-18.97 153.02-19.56L153.02-19.56L153.02-19.56Q152.33-20.15 151.78-20.15L151.78-20.15L151.78-20.15Q150.47-20.15 147.68-16.89L147.68-16.89L147.68-16.89Q144.89-13.64 142.60-9.24L142.60-9.24L142.60-9.24Q142.04-8.18 141.61-7.10L141.61-7.10L141.61-7.10Q141.17-6.01 141.05-5.70L141.05-5.70ZM187.43-2.85L187.43-2.85Q186.19-2.85 185.38-3.38L185.38-3.38L185.38-3.38Q184.57-3.91 184.02-5.15L184.02-5.15L184.02-5.15Q183.46-7.13 183.46-9.11L183.46-9.11L183.46-9.11Q183.46-10.04 183.64-10.42L183.64-10.42L183.64-10.42Q183.89-10.66 183.86-11.50L183.86-11.50L183.86-11.50Q183.83-12.34 183.83-12.71L183.83-12.71L183.83-12.71Q183.77-14.14 182.96-14.14L182.96-14.14L182.96-14.14Q182.40-14.14 181.72-13.70L181.72-13.70L181.72-13.70Q178.25-11.53 175.89-9.98L175.89-9.98L175.89-9.98Q173.54-8.43 171.37-6.51L171.37-6.51L171.37-6.51Q170.50-5.52 170.07-4.77L170.07-4.77L170.07-4.77Q169.63-4.03 169.45-3.75L169.45-3.75L169.45-3.75Q169.26-3.47 168.95-3.47L168.95-3.47L168.95-3.47Q168.58-3.35 168.45-3.35L168.45-3.35L168.45-3.35Q168.14-3.35 167.71-3.69L167.71-3.69L167.71-3.69Q167.28-4.03 167.15-4.15L167.15-4.15L167.15-4.15Q166.90-4.40 166.35-4.99L166.35-4.99L166.35-4.99Q165.79-5.58 165.73-5.83L165.73-5.83L165.73-5.83Q165.73-6.32 166.13-8.12L166.13-8.12L166.13-8.12Q166.53-9.92 166.78-10.42L166.78-10.42L166.78-10.42Q166.97-10.42 167.34-11.19L167.34-11.19L167.34-11.19Q167.71-11.97 168.02-12.40L168.02-12.40L168.02-12.40Q168.21-13.33 169.63-16.68L169.63-16.68L169.63-16.68Q170.50-18.17 170.84-19.16L170.84-19.16L170.84-19.16Q171.18-20.15 171.31-21.64L171.31-21.64L171.31-21.76L171.31-21.76Q171.31-22.01 171.49-22.16L171.49-22.16L171.49-22.16Q171.68-22.32 171.86-22.32L171.86-22.32L171.86-22.32Q172.30-22.63 172.67-22.63L172.67-22.63L172.67-22.63Q173.48-22.63 174.28-21.64L174.28-21.64L174.28-21.64Q175.21-20.46 175.21-19.16L175.21-19.16L175.21-19.16Q175.21-17.55 173.17-14.07L173.17-14.07L173.17-14.07Q172.98-13.64 172.64-12.83L172.64-12.83L172.64-12.83Q172.30-12.03 172.30-11.72L172.30-11.72L175.77-14.07L175.77-14.07Q176.27-14.63 178.44-16.06L178.44-16.06L178.44-16.06Q180.61-17.48 181.47-17.67L181.47-17.67L181.47-17.67Q182.96-18.35 183.33-18.35L183.33-18.35L183.33-18.35Q184.08-18.35 185.35-17.24L185.35-17.24L185.35-17.24Q186.62-16.12 186.87-15.38L186.87-15.38L186.87-15.38Q186.87-14.69 186.99-14.38L186.99-14.38L186.99-14.38Q187.30-13.14 187.30-11.47L187.30-11.47L187.30-11.47Q187.30-10.35 187.15-9.46L187.15-9.46L187.15-9.46Q186.99-8.56 186.74-8.43L186.74-8.43L186.74-8.43Q186.74-8.37 186.81-8.25L186.81-8.25L186.81-8.25Q186.87-8.12 187.05-8.12L187.05-8.12L187.05-7.81L187.05-7.81Q186.56-7.81 186.93-6.76L186.93-6.76L186.93-6.76Q187.30-5.70 187.92-5.15L187.92-5.15L187.92-5.15Q188.54-4.53 188.54-3.91L188.54-3.91L188.54-3.91Q188.54-3.16 187.43-2.85L187.43-2.85ZM194.12-0.31L194.12-0.31Q193.38-0.56 192.57-1.77L192.57-1.77L192.57-1.77Q191.77-2.98 191.77-3.97L191.77-3.97L192.63-6.57L193.81-10.29L193.81-10.29Q194.37-11.10 194.71-12.24L194.71-12.24L194.71-12.24Q195.05-13.39 195.11-13.58L195.11-13.58L195.11-13.58Q195.73-14.76 197.59-19.28L197.59-19.28L198.77-22.13L198.77-22.13Q200.51-25.85 201.62-28.83L201.62-28.83L202.62-31.12L203.79-33.85L203.79-33.85Q205.96-39.12 206.21-39.99L206.21-39.99L206.21-39.99Q206.21-40.49 206.43-40.73L206.43-40.73L206.43-40.73Q206.65-40.98 206.89-40.98L206.89-40.98L206.89-40.98Q207.20-41.29 207.89-41.29L207.89-41.29L207.89-41.29Q208.20-41.29 208.88-40.33L208.88-40.33L208.88-40.33Q209.56-39.37 209.56-38.69L209.56-38.69L209.56-38.69Q209.56-37.63 208.57-34.88L208.57-34.88L208.57-34.88Q207.58-32.12 205.90-28.77L205.90-28.77L205.90-28.77Q199.83-15.69 200.32-15.19L200.32-15.19L200.32-15.19Q200.57-15.31 201.38-15.72L201.38-15.72L201.38-15.72Q202.18-16.12 203.05-16.74L203.05-16.74L203.05-16.74Q203.61-17.05 204.10-17.39L204.10-17.39L204.10-17.39Q204.60-17.73 204.97-17.98L204.97-17.98L204.97-17.98Q206.89-19.28 207.33-19.41L207.33-19.41L207.33-19.41Q207.70-19.65 208.75-20.27L208.75-20.27L208.75-20.27Q209.87-21.02 209.93-21.08L209.93-21.08L209.93-21.08Q210.68-21.45 211.17-21.45L211.17-21.45L211.17-21.45Q211.54-21.45 211.85-21.20L211.85-21.20L211.85-21.20Q212.16-20.96 212.60-20.46L212.60-20.46L212.60-20.46Q212.97-20.03 212.97-19.59L212.97-19.59L212.97-19.59Q212.97-19.16 212.47-18.69L212.47-18.69L212.47-18.69Q211.98-18.23 210.80-17.48L210.80-17.48L210.80-17.48Q209.99-16.93 209.13-16.43L209.13-16.43L209.13-16.43Q208.26-15.93 207.45-15.44L207.45-15.44L207.45-15.44Q202.99-12.71 202.86-12.52L202.86-12.52L202.86-12.52Q202.99-12.28 203.45-11.41L203.45-11.41L203.45-11.41Q203.92-10.54 204.35-9.92L204.35-9.92L205.28-8.31L205.28-8.31Q206.03-7.25 206.03-6.94L206.03-6.94L206.03-6.94Q206.58-5.39 207.54-4.53L207.54-4.53L207.54-4.53Q208.51-3.66 209.62-3.66L209.62-3.66L209.62-3.66Q210.18-3.66 210.92-3.97L210.92-3.97L210.92-3.97Q211.85-4.34 212.41-4.34L212.41-4.34L212.41-4.34Q213.28-4.34 213.59-3.35L213.59-3.35L213.59-3.35Q213.78-2.98 213.78-2.79L213.78-2.79L213.78-2.79Q213.78-2.54 212.91-1.67L212.91-1.67L212.91-1.67Q211.30-0.06 209.62-0.06L209.62-0.06L209.62-0.06Q209.06-0.06 208.32-0.37L208.32-0.37L208.32-0.37Q207.39-0.31 206.00-1.61L206.00-1.61L206.00-1.61Q204.60-2.91 202.12-6.14L202.12-6.14L202.12-6.14Q202.12-6.39 201.44-7.75L201.44-7.75L201.44-7.75Q201.19-8.31 200.88-8.77L200.88-8.77L200.88-8.77Q200.57-9.24 200.45-9.42L200.45-9.42L200.45-9.42Q200.45-9.67 200.17-10.07L200.17-10.07L200.17-10.07Q199.89-10.48 199.76-10.73L199.76-10.73L199.76-10.73Q199.08-10.91 198.68-10.60L198.68-10.60L198.68-10.60Q198.28-10.29 197.94-9.73L197.94-9.73L197.94-9.73Q197.59-9.18 197.41-8.93L197.41-8.93L197.41-8.93Q196.79-7.32 196.17-4.99L196.17-4.99L196.17-4.99Q195.55-2.67 195.73-1.98L195.73-1.98L195.73-1.98Q195.73-0.99 195.42-0.65L195.42-0.65L195.42-0.65Q195.11-0.31 194.12-0.31L194.12-0.31ZM216.44-2.23L216.44-2.23Q216.26-2.60 215.85-3.01L215.85-3.01L215.85-3.01Q215.45-3.41 215.45-3.53L215.45-3.53L215.45-3.53Q215.45-4.22 215.14-4.59L215.14-4.59L215.14-4.59Q215.02-4.71 215.02-5.15L215.02-5.15L215.02-5.15Q215.02-6.14 215.98-8.53L215.98-8.53L215.98-8.53Q216.94-10.91 218.49-13.70L218.49-13.70L218.49-13.70Q218.86-14.07 219.45-15.00L219.45-15.00L219.45-15.00Q220.04-15.93 220.22-16.06L220.22-16.06L220.22-16.06Q220.22-16.31 220.41-16.52L220.41-16.52L220.41-16.52Q220.60-16.74 220.84-16.74L220.84-16.74L220.84-17.11L220.84-17.11Q220.84-17.67 222.89-19.81L222.89-19.81L222.89-19.81Q224.94-21.95 226.24-22.75L226.24-22.75L226.24-22.75Q227.79-23.81 229.40-23.81L229.40-23.81L229.40-23.81Q230.52-23.81 231.32-23.19L231.32-23.19L231.32-23.19Q231.63-22.82 234.17-20.52L234.17-20.52L236.47-18.48L235.35-15.38L235.35-15.38Q234.79-13.70 234.79-12.34L234.79-12.34L234.79-12.34Q234.79-9.98 236.16-7.81L236.16-7.81L236.16-7.81Q236.47-7.13 237.40-6.51L237.40-6.51L237.40-6.51Q238.33-5.89 239.26-5.77L239.26-5.77L239.26-5.77Q240.62-5.52 240.62-4.40L240.62-4.40L240.62-4.40Q240.62-3.16 239.51-2.91L239.51-2.91L239.51-2.91Q239.26-2.85 238.76-2.85L238.76-2.85L238.76-2.85Q235.10-2.85 232.44-8.00L232.44-8.00L232.44-8.00Q232.19-8.37 231.79-9.36L231.79-9.36L231.79-9.36Q231.38-10.35 231.32-10.73L231.32-10.73L231.32-10.73Q230.95-10.23 230.39-9.55L230.39-9.55L230.39-9.55Q229.83-8.87 229.34-8.37L229.34-8.37L229.34-8.37Q222.58-1.61 218.67-1.61L218.67-1.61L218.67-1.61Q217.43-1.61 216.44-2.23L216.44-2.23ZM218.67-5.70L218.67-5.70Q218.67-5.39 219.32-5.52L219.32-5.52L219.32-5.52Q219.98-5.64 220.94-6.14L220.94-6.14L220.94-6.14Q221.90-6.63 222.89-7.44L222.89-7.44L222.89-7.44Q228.22-12.03 230.58-15.44L230.58-15.44L231.94-17.67L231.94-17.67Q231.32-18.97 230.64-19.56L230.64-19.56L230.64-19.56Q229.96-20.15 229.40-20.15L229.40-20.15L229.40-20.15Q228.10-20.15 225.31-16.89L225.31-16.89L225.31-16.89Q222.52-13.64 220.22-9.24L220.22-9.24L220.22-9.24Q219.67-8.18 219.23-7.10L219.23-7.10L219.23-7.10Q218.80-6.01 218.67-5.70L218.67-5.70ZM244.28-2.17L244.28-2.17Q243.78-2.54 243.60-2.85L243.60-2.85L243.60-2.85Q243.41-3.16 243.41-3.78L243.41-3.78L243.41-3.78Q243.41-4.34 243.47-4.71L243.47-4.71L243.47-4.71Q243.66-6.82 244.40-9.61L244.40-9.61L244.71-10.85L244.71-10.85Q244.90-12.40 246.88-17.36L246.88-17.36L246.88-17.36Q248.87-22.32 250.11-24.12L250.11-24.12L250.11-24.12Q250.60-24.43 251.16-24.43L251.16-24.43L251.16-24.43Q251.97-24.43 252.53-23.87L252.53-23.87L252.53-23.87Q252.90-23.62 252.90-22.94L252.90-22.94L252.90-22.94Q252.90-22.32 252.43-21.11L252.43-21.11L252.43-21.11Q251.97-19.90 250.85-17.55L250.85-17.55L250.85-17.55Q250.60-17.05 250.01-15.69L250.01-15.69L250.01-15.69Q249.43-14.32 249.43-14.07L249.43-14.07L249.43-14.07Q249.43-13.95 249.49-13.95L249.49-13.95L249.49-13.95Q249.61-13.95 249.74-14.04L249.74-14.04L249.74-14.04Q249.86-14.14 249.98-14.20L249.98-14.20L249.98-14.20Q250.67-15.38 253.30-17.42L253.30-17.42L253.30-17.42Q255.94-19.47 256.93-19.96L256.93-19.96L256.93-19.96Q257.36-20.21 258.04-20.46L258.04-20.46L258.04-20.46Q258.73-20.71 258.97-20.83L258.97-20.83L258.97-20.83Q259.97-21.33 261.33-21.33L261.33-21.33L261.33-21.33Q262.20-21.33 262.85-21.05L262.85-21.05L262.85-21.05Q263.50-20.77 263.75-20.21L263.75-20.21L263.75-20.21Q263.81-19.78 264.09-19.53L264.09-19.53L264.09-19.53Q264.37-19.28 264.49-19.22L264.49-19.22L264.49-19.22Q264.68-19.22 264.74-19.07L264.74-19.07L264.74-19.07Q264.80-18.91 264.80-18.85L264.80-18.85L264.80-18.85Q264.80-18.41 264.31-18.32L264.31-18.32L264.31-18.32Q263.81-18.23 262.51-18.17L262.51-18.17L262.51-18.17Q261.83-18.10 261.08-17.86L261.08-17.86L261.08-17.86Q260.34-17.61 259.59-17.24L259.59-17.24L259.59-17.24Q256.12-15.25 254.42-14.14L254.42-14.14L254.42-14.14Q252.71-13.02 250.98-11.10L250.98-11.10L250.98-11.10Q250.29-10.35 249.18-8.43L249.18-8.43L249.18-8.43Q248.74-8.00 248.28-6.17L248.28-6.17L248.28-6.17Q247.81-4.34 247.81-3.91L247.81-3.91L247.81-3.91Q247.75-3.72 247.57-3.19L247.57-3.19L247.57-3.19Q247.38-2.67 247.01-2.17L247.01-2.17L247.01-2.17Q246.26-1.18 245.77-1.18L245.77-1.18L245.77-1.18Q245.21-1.18 244.28-2.17L244.28-2.17Z" fill="url(#editing-shiny-gradient2)"></path></g></g><style>text {
  font-size: 64px;
  font-family: Arial Black;
  dominant-baseline: central;
  text-anchor: middle;
}</style></svg>